<svg xmlns="http://www.w3.org/2000/svg" version="1.1" xmlns:xlink="http://www.w3.org/1999/xlink" xmlns:svgjs="http://svgjs.dev/svgjs" width="153.52" height="105.54"><svg id="SvgjsSvg1013" xmlns="http://www.w3.org/2000/svg" xmlns:xlink="http://www.w3.org/1999/xlink" viewBox="0 0 153.52 105.54"><defs><style>.cls-1{fill:#f1eee8;}.cls-2{fill:#cd5244;}.cls-3{fill:none;}.cls-4{fill:#b3b3b3;}.cls-5{fill:#8c8c8c;}.cls-6{fill:#312f70;}.cls-7{clip-path:url(#clippath);}.cls-8{fill:#3461ac;}</style><clipPath id="SvgjsClipPath1012"><path class="cls-3" d="M66.81,29.98l-18.61-7.51C28.25,14.42,5.88,26.45,1.6,47.54l-.98,4.85c-2.94,14.5,4.95,29.02,18.72,34.44l11.87,4.67,35.61-61.52Z"></path></clipPath></defs><g id="SvgjsG1011"><g id="SvgjsG1010"><g id="SvgjsG1009"><polygon class="cls-1" points="153.52 36.69 99.18 36.69 99.18 36.69 115.39 64.77 153.52 64.77 153.52 36.69"></polygon><polygon class="cls-2" points="153.52 77.46 119.44 77.46 119.44 77.46 135.65 105.54 153.52 105.54 153.52 77.46"></polygon></g><polygon class="cls-6" points="73.24 77.46 105.67 77.46 77.16 28.08 60.94 56.16 73.24 77.46"></polygon><polygon class="cls-8" points="105.67 77.46 48.65 77.46 77.16 28.08 60.94 0 .01 105.54 121.88 105.54 105.67 77.46"></polygon><polygon class="cls-1" points="73.24 77.46 60.94 56.16 48.65 77.46 73.24 77.46"></polygon><polygon class="cls-6" points="66.81 29.98 51.81 29.98 16.22 91.5 31.2 91.5 66.81 29.98"></polygon><g id="SvgjsG1008"><g class="cls-7"><g id="SvgjsG1007"><circle class="cls-4" cx="33.02" cy="56.4" r="30.76"></circle><circle class="cls-5" cx="33.02" cy="56.4" r="25.06"></circle></g></g></g></g></g></svg><style>@media (prefers-color-scheme: light) { :root { filter: none; } }
@media (prefers-color-scheme: dark) { :root { filter: none; } }
</style></svg>