<?xml version="1.0" encoding="UTF-8"?>
<svg id="Layer_1" xmlns="http://www.w3.org/2000/svg" version="1.1" viewBox="0 0 500 352.1">
  <!-- Generator: Adobe Illustrator 29.3.1, SVG Export Plug-In . SVG Version: 2.1.0 Build 151)  -->
  <defs>
    <style>
      .st0 {
        fill: #f499bb;
      }

      .st1 {
        opacity: .6;
      }

      .st1, .st2, .st3, .st4, .st5, .st6, .st7, .st8, .st9, .st10, .st11, .st12 {
        fill: #ffc907;
      }

      .st13 {
        fill: none;
        stroke: #ffc907;
        stroke-miterlimit: 10;
        stroke-width: .4px;
      }

      .st2 {
        opacity: 0;
      }

      .st3 {
        opacity: .5;
      }

      .st4, .st14 {
        opacity: .2;
      }

      .st15 {
        fill: #263238;
      }

      .st16 {
        fill: #455b64;
      }

      .st17 {
        fill: #fff;
      }

      .st5 {
        opacity: .9;
      }

      .st18 {
        fill: #2b464f;
      }

      .st6 {
        opacity: .3;
      }

      .st19 {
        fill: #fdd35b;
      }

      .st20, .st21 {
        fill: #010101;
      }

      .st20, .st10 {
        opacity: 0;
      }

      .st7 {
        opacity: 0;
      }

      .st22 {
        fill: #a8a8a8;
      }

      .st23 {
        fill: #ebebeb;
      }

      .st24 {
        fill: #dcdcdc;
      }

      .st25 {
        fill: #c8c8c8;
      }

      .st8 {
        opacity: .4;
      }

      .st9 {
        opacity: .7;
      }

      .st26 {
        fill: #f8a9a1;
      }

      .st12 {
        opacity: .8;
      }
    </style>
  </defs>
  <g>
    <g>
      <rect class="st23" x="51.7" y="17.1" width="396.7" height="265.3"/>
      <rect class="st15" x="54.5" y="20.3" width="390.9" height="258.9"/>
      <g>
        <rect class="st24" y="302.3" width="500" height="18.2"/>
        <polygon class="st23" points="0 302.3 51.7 282.4 448.3 282.4 500 302.3 0 302.3"/>
        <polygon class="st15" points="56.3 295.3 89.6 282.4 410.4 282.4 443.7 295.3 56.3 295.3"/>
      </g>
      <g>
        <rect class="st17" x="76.6" y="40" width="346.7" height="219.5"/>
        <g>
          <rect class="st16" x="76.3" y="40" width="347" height="8.4"/>
          <g>
            <path class="st25" d="M83.1,44.2c0,1.2-.9,2.1-2.1,2.1s-2.1-.9-2.1-2.1.9-2.1,2.1-2.1,2.1.9,2.1,2.1Z"/>
            <path class="st17" d="M91.6,44.2c0,1.2-.9,2.1-2.1,2.1s-2.1-.9-2.1-2.1.9-2.1,2.1-2.1,2.1.9,2.1,2.1Z"/>
            <path class="st11" d="M100.2,44.2c0,1.2-.9,2.1-2.1,2.1s-2.1-.9-2.1-2.1.9-2.1,2.1-2.1,2.1.9,2.1,2.1Z"/>
          </g>
        </g>
        <g>
          <g>
            <rect class="st13" x="161.3" y="208.9" width="178.7" height="10.9"/>
            <rect class="st11" x="163.4" y="211" width="4.1" height="6.8"/>
            <rect class="st11" x="169" y="211" width="4.1" height="6.8"/>
            <rect class="st11" x="174.6" y="211" width="4.1" height="6.8"/>
            <rect class="st11" x="180.2" y="211" width="4.1" height="6.8"/>
            <rect class="st11" x="185.8" y="211" width="4.1" height="6.8"/>
            <rect class="st11" x="191.4" y="211" width="4.1" height="6.8"/>
            <rect class="st11" x="197" y="211" width="4.1" height="6.8"/>
            <rect class="st11" x="202.6" y="211" width="4.1" height="6.8"/>
            <rect class="st11" x="208.2" y="211" width="4.1" height="6.8"/>
            <rect class="st11" x="213.7" y="211" width="4.1" height="6.8"/>
            <rect class="st11" x="219.3" y="211" width="4.1" height="6.8"/>
            <rect class="st11" x="224.9" y="211" width="4.1" height="6.8"/>
          </g>
          <g id="circuloload">
            <circle class="st11" cx="250.7" cy="89.7" r="5.6"/>
            <path class="st5" d="M218,97c0,3,2.4,5.4,5.4,5.4s5.4-2.4,5.4-5.4-2.4-5.4-5.4-5.4-5.4,2.4-5.4,5.4Z"/>
            <path class="st12" d="M201.1,115.7c0,2.8,2.3,5.1,5.1,5.1s5.1-2.3,5.1-5.1-2.3-5.1-5.1-5.1-5.1,2.3-5.1,5.1Z"/>
            <circle class="st9" cx="200.4" cy="140.7" r="4.8"/>
            <path class="st1" d="M201.3,164.3c0,2.5,2,4.5,4.5,4.5s4.5-2,4.5-4.5-2-4.5-4.5-4.5-4.5,2-4.5,4.5Z"/>
            <path class="st3" d="M218.1,183.6c0,2.4,1.9,4.3,4.3,4.3s4.3-1.9,4.3-4.3-1.9-4.3-4.3-4.3-4.3,1.9-4.3,4.3Z"/>
            <path class="st8" d="M246.9,191.7c0,2.2,1.8,4,4,4s4-1.8,4-4-1.8-4-4-4-4,1.8-4,4Z"/>
            <path class="st6" d="M276,183c0,2,1.7,3.7,3.7,3.7s3.7-1.7,3.7-3.7-1.7-3.7-3.7-3.7-3.7,1.7-3.7,3.7Z"/>
            <path class="st4" d="M292.7,162.8c0,1.9,1.5,3.4,3.4,3.4s3.4-1.5,3.4-3.4-1.5-3.4-3.4-3.4-3.4,1.5-3.4,3.4Z"/>
            <path class="st10" d="M298.2,140.2c0,1.7,1.4,3.1,3.1,3.1s3.1-1.4,3.1-3.1-1.4-3.1-3.1-3.1-3.1,1.4-3.1,3.1Z"/>
            <circle class="st7" cx="293.2" cy="111.2" r="2.9"/>
            <circle class="st2" cx="273.7" cy="94.8" r="2.6"/>
          </g>
        </g>
      </g>
    </g>
    <g id="setaload">
      <g>
        <g>
          <path class="st11" d="M434.4,14.7l-5.3-5.6c10.1-9.6,25.3-11.9,37.8-5.7,10.5,5.2,17.5,15.7,18.4,27.4l-7.7.6c-.7-9-6.1-17-14.1-21-9.6-4.8-21.2-3-29,4.4Z"/>
          <polygon class="st11" points="470.5 26.2 478.3 46.3 491.8 29.5 470.5 26.2"/>
        </g>
        <g class="st14">
          <path class="st21" d="M434.4,14.7l-5.3-5.6c10.1-9.6,25.3-11.9,37.8-5.7,10.5,5.2,17.5,15.7,18.4,27.4l-7.7.6c-.7-9-6.1-17-14.1-21-9.6-4.8-21.2-3-29,4.4Z"/>
          <polygon class="st21" points="470.5 26.2 478.3 46.3 491.8 29.5 470.5 26.2"/>
        </g>
      </g>
      <g>
        <path class="st11" d="M438.1,61.4c-10.5-5.2-17.5-15.7-18.4-27.4l7.7-.6c.7,9,6.1,17,14.1,21,10.1,5,22.5,2.7,30.1-5.5l5.7,5.2c-10,10.8-26.1,13.7-39.2,7.2Z"/>
        <polygon class="st11" points="434.4 38.6 426.6 18.5 413.1 35.3 434.4 38.6"/>
      </g>
    </g>
  </g>
  <g>
    <g>
      <g>
        <path class="st26" d="M348.1,345.7c1.8-.7,42.9-33.5,43.7-35.8.3-.8-4.1-7.1-9.7-14.5-1.2-1.6-2.5-3.2-3.7-4.9-8.3-10.8-17.4-22.1-17.4-22.1l-27.6,21.9,18.1,21.5,4,4.7s-10.1,19.6-10.7,22.2c-.6,2.5,1.5,7.7,3.3,7Z"/>
        <path class="st17" d="M348.1,345.7c1.8-.7,42.9-33.5,43.7-35.8.4-1-6.3-10.1-13.5-19.5l-26.8,21.3,4,4.7s-10.1,19.6-10.7,22.2c-.6,2.5,1.5,7.7,3.3,7Z"/>
        <g>
          <path class="st11" d="M348.1,345.7c1.8-.7,42.9-33.5,43.7-35.8.3-.8-4.1-7.1-9.7-14.5l-26.6,21.1s-10.1,19.6-10.7,22.2c-.6,2.5,1.5,7.7,3.3,7Z"/>
          <g>
            <g>
              <path class="st15" d="M347.4,343.6c6.8-5.7,34.5-27.9,41.7-33,0,0,0,0,0,0-6.6,5.8-34.5,27.8-41.6,33.1-.1.1-.2,0,0-.1Z"/>
              <path class="st15" d="M346.3,335.1c1.6-1.4,3.8-1.9,5.5-1.6,1.6.3,3.4,1,4.5,2.4,0,0,0,.1,0,0-2.5-2.4-6.9-2.8-9.8-.8,0,0-.1,0,0,0Z"/>
              <path class="st15" d="M353.4,319.3c2.7-2.2,6.7-3.8,10.2-2.9.1,0,0,.2,0,.3-3.5.7-6.7,1.6-10,3.1-.2.1-.4-.2-.2-.4Z"/>
              <path class="st15" d="M352,321.9c2.7-2.2,6.7-3.8,10.2-2.9.1,0,0,.2,0,.3-3.5.7-6.7,1.6-10,3.1-.2.1-.4-.2-.2-.4Z"/>
              <path class="st15" d="M350.5,324.4c2.7-2.2,6.7-3.8,10.2-2.9.1,0,0,.2,0,.3-3.5.7-6.7,1.6-10,3.1-.2.1-.4-.2-.2-.4Z"/>
              <path class="st15" d="M349,326.9c2.7-2.2,6.7-3.8,10.2-2.9.1,0,0,.2,0,.3-3.5.7-6.7,1.6-10,3.1-.2.1-.4-.2-.2-.4Z"/>
              <path class="st17" d="M382.1,305.4c3.1-2.5,6.9,2.4,3.8,4.8-3.1,2.5-6.9-2.4-3.8-4.8Z"/>
            </g>
            <path class="st15" d="M348,318.2c3,.7,6.3.1,9.3,0,.3,0,.4-.4.3-.6,0,0,0,0,0-.1-2.1-2.3-5.2-4.2-8.1-5.1-1.8-.5-4.5-.2-5,2-.4,2.2,1.7,3.4,3.5,3.9ZM346.1,316c-2.1-3.2,2.4-3.1,3.8-2.6.9.3,1.7.7,2.5,1.1,1.7.8,3.2,1.9,4.8,2.8-1.5,0-3,.2-4.5.2-1.8,0-5.4.3-6.6-1.5Z"/>
            <path class="st15" d="M366.1,307.8c-1.7-1.6-4-.4-5.3,1.1-2,2.3-3.5,5.7-4,8.7,0,0,0,.1.1.1,0,.3.3.5.6.3,2.7-1.5,5.7-2.8,7.8-5.1,1.2-1.3,2.3-3.6.7-5.1ZM361.1,314.9c-1.3.8-2.6,1.5-3.9,2.3.8-1.7,1.5-3.4,2.4-5,.5-.8.9-1.6,1.5-2.3.9-1.1,4.6-3.7,4.6.1,0,2.1-3.1,3.9-4.6,4.9Z"/>
          </g>
        </g>
      </g>
      <path class="st18" d="M305.6,248.2c1.9,14.3,37.2,55.7,41.3,60.4.6.7.9,1.1.9,1.1l29.2-22.4-.3-.4-25.7-33.7,76.7,7.7-19.9-22.4s-2.4,1.4-7.3.6c-16.9-2.5-64.3-16.4-73.3-16-11.6.5-23.3,12-21.6,25.1Z"/>
      <path class="st15" d="M341.7,240.6c1,1,1.8,2.3,2.7,3.4.9,1.2,1.8,2.4,2.7,3.6,0,0,0,0,0,0-.2-.3-.3-.7-.5-1-.6-1.2-1-2.4-1.7-3.5,0,0,0-.1.1,0,.7,1.1,1.5,2.2,2.1,3.4.3.6.5,1.1.8,1.7.1.3.3.6.4.9,0,.1.1.3.2.5.4.6.8,1.1,1.2,1.7.9,1.3,1.6,2.6,2.5,3.8,0,0,0,.1-.1,0-.9-1.2-1.9-2.3-2.8-3.4-.9-1.2-1.8-2.4-2.6-3.6-.8-1.2-1.7-2.4-2.5-3.6-.8-1.2-1.8-2.4-2.5-3.7,0,0,0,0,0,0Z"/>
    </g>
    <g>
      <g>
        <g>
          <path class="st26" d="M416,206.6c-4.2,16.5-12.6,36.2-16,39.3-4.4,4-32.7,10.8-34.1,10.9-3.5.3-9.9-24.9-6.1-25.4,5.7-.7,26.2-1.3,27.4-2.5,1.3-1.3,10.2-12,19.4-24.1,6.3-8.4,12-8.4,9.4,1.8Z"/>
          <g>
            <path class="st26" d="M368.7,255.6c-.4.2-6.4,3-10,4-2.7.7-10.7,2.6-11.8-.3-.7-2,3.8-3.6,7-4.9,1.7-.7,3.8-2.3,3.3-3.4-.8-1.9-5.1-.1-8,1.4-5.5,3-12.9,8.5-16.1,5.7-1.2-1.1.3-2.9,2.4-4.7-3.5,2.1-7.2,3.8-8.6,2.6-.8-.6-.8-1.5-.3-2.5-1.1.3-2,.2-2.7-.5-1.1-1.2-.5-2.9.8-4.7-.4,0-.7-.3-1-.7-2.3-3.7,9.9-13.8,14-14.7,12.2-2.6,24.9-1.7,24.9-1.7,4.7,3.9,6.1,24.4,6.1,24.4Z"/>
            <g>
              <path class="st15" d="M351.2,244c-2.9.4-5.7,1.4-8.2,2.9-3.1,2-5.2,4.3-7.8,6.6,0,0,0,.2,0,.1,1.3-1.1,6.4-5.3,7.8-6.2,2.5-1.7,5.2-2.9,8.1-3.4,0,0,0,0,0,0Z"/>
              <path class="st15" d="M349.1,238.8c-3.2.8-6.5,1.6-9.5,3-3.3,1.6-5.9,4.2-8.4,6.7-1.5,1.5-3,3.1-4.5,4.6,0,0,0,.2,0,.1,2.6-2.6,5.3-5.1,8-7.6,2.6-2.3,5.4-4,8.7-5.2,1.8-.7,3.7-1.2,5.6-1.7,0,0,0,0,0,0Z"/>
              <path class="st15" d="M345.8,234.2c-3.1.6-5.8,1-8.6,2.6-3.7,2.1-7.3,5.7-8.5,7-1.4,1.4-2.7,2.9-4.1,4.4,0,0,0,.2.1,0,3-3.2,6.2-6.3,9.7-9.1,1.6-1.3,3.4-2.5,5.4-3.3,1.9-.8,4-1.2,6.1-1.6,0,0,0,0,0,0Z"/>
            </g>
          </g>
        </g>
        <g>
          <path class="st11" d="M364.6,230.2l8,27.6s23.6-6.1,28-10.7c4.4-4.5,12.9-28.2,15.5-39.7,2.6-11.5-3.3-11.4-8.8-4.2-5.6,7.2-19.4,24.5-20.1,24.9-.8.4-22.6,2-22.6,2Z"/>
          <path class="st15" d="M375.1,245.8c-1-3.3-2-6.5-2.8-9.8-.5-1.9-1-3.7-1.4-5.6,0,0,.1-.1.1,0,1.1,3.2,2.2,6.5,3.2,9.8,1,3.3,1.9,6.5,2.8,9.8.5,1.9,1,3.7,1.4,5.6,0,0,0,0,0,0-1.2-3.2-2.2-6.5-3.2-9.8Z"/>
          <path class="st17" d="M374.4,229.5c0,0,.1,0,.2,0,0,0,0,.2,0,.2,0,1.2.2,2.5.7,3.6.4,1.2,1.1,2.2,1.9,3.2.8,1,1.8,1.7,2.9,2.2,1.1.5,2.3.8,3.6.9,1,.1,2,.1,2.9,0h.2c.2,0,.4,0,.5,0,1.2,0,2.5-.2,3.7-.4,2.5-.3,4.9-.7,7.4-.7,1.2,0,2.5,0,3.7.4.9.2,1.8.6,2.5,1.2,0,0,0,0,0,.1-.7-.6-1.6-1-2.5-1.2-1.2-.3-2.4-.4-3.7-.4-2.5,0-5,.5-7.4.8-1.2.2-2.5.3-3.7.4-.1,0-.2,0-.4,0h-.2c-1.1,0-2.1,0-3.2,0-1.2-.1-2.5-.4-3.6-.9-1.1-.5-2.2-1.3-3-2.3-.8-1-1.5-2-1.9-3.2-.2-.6-.4-1.2-.5-1.8-.1-.6-.2-1.2-.2-1.9,0,0,0-.1,0-.2ZM382.2,232.6c.3,1.2.8,2.4,1.4,3.5.6,1.1,1.4,2.1,2.3,3,.2.2.5.4.7.6,0,0,.1.1.2.2.7.5,1.4,1,2.2,1.4,1.1.5,2.3.9,3.5,1.2,2.4.6,4.9,1,7.2,1.9.8.3,1.5.7,2.2,1.1,0,0,0,0,0,0-.7-.5-1.4-.8-2.2-1.2-2.3-1-4.8-1.3-7.2-1.9-1.2-.3-2.4-.7-3.5-1.2-.7-.3-1.4-.8-2-1.2,0,0-.1-.1-.2-.2-.3-.2-.6-.5-.8-.7-.9-.9-1.6-1.9-2.3-2.9-.6-1.1-1.1-2.2-1.4-3.4-.3-1.2-.4-2.4-.4-3.7,0,0,0,0,0,0,0,0-.1,0-.2,0h0c0,1.3,0,2.6.4,3.8Z"/>
          <path class="st20" d="M371.8,255.1l.8,2.8s23.6-6.1,28-10.6c4.4-4.5,12.9-28.2,15.5-39.7,1.9-8.4-.7-10.6-4.4-8.4-10.1,13.8-29,40.1-39.9,56Z"/>
        </g>
      </g>
      <path class="st11" d="M443.1,261c-.1.1-50-10.8-50.5-11.4-.6-.8,8.3-38.3,17.7-49.5,2.4-2.8,9.8-2.6,13.2.2,16.6,14,20.1,60.2,19.6,60.7Z"/>
      <g>
        <g>
          <path class="st26" d="M427.6,203.2c10.3,8,37.6,40.1,31.9,47.8-5.7,7.7-44.8,5.1-56.2,1.8-3.4-1,5.3-22.6,8.9-23.6,3-.9,19.9,3.7,20.2,2.7.3-1.1-3.4-8.2-9.4-21.3-7-15,0-10.9,4.5-7.4Z"/>
          <g>
            <g>
              <path class="st26" d="M395.6,225.4c-7.8.2-9.8,1.5-16.5-1.9-4.4-2.2-7.7-.3-4.7,3.8,4.9,6.8,15,8.6,18.7,8.3l2.4-10.2Z"/>
              <path class="st26" d="M417.1,229.4s-9.4-3.3-17.7-4c-5.8-.4-18.4,0-28.3,14.3-2.3,3.4-3.3,9.8,2.5,5.7,4.1-2.9,5.9-6,8.6-7.3,0,0-.2,8.4,3.2,10.6,1.5,1,5.8,3.6,9.5,5.1,0,0,.5-.7,1.1-1.7,0,0,3.4,1.8,9.1.3l12-23Z"/>
              <g>
                <path class="st26" d="M393.8,225.9c-2.4,1.8-7.5,5.8-10.5,10.5-3.4,5.2-8.4,16.1-4.6,18.6,2.8,1.8,5.1-2.2,5.1-2.2,0,0-1.1,5,1.8,6,2.7,1,4.3-2.2,4.3-2.2,0,0-.2,3.1,2.6,3.6,3.3.5,3.1-6.1,6.9-8.5.9-.5-5.5-25.7-5.5-25.7Z"/>
                <g>
                  <path class="st15" d="M389.4,239c-2,2.1-5.3,8-5.6,13.6,0,.1,0,.2.1,0,1.6-6.1,4.3-11.4,5.5-13.6,0,0,0,0,0,0Z"/>
                  <path class="st15" d="M394.5,242.5c-1.5,2-4.7,8.2-4.8,13.9,0,.1,0,.2.1,0,1.4-6.4,3.6-11.7,4.7-14,0,0,0,0,0,0Z"/>
                </g>
              </g>
            </g>
            <path class="st15" d="M382.2,238.1c-2.4,1.1-3.8,2.6-5.6,4.4-.9.9-1.9,1.8-2.9,2.6-.9.7-2.3,1.8-3.5,1.1-.7-.4-.8-1.3-.8-2,0-.8.5-2.3.9-3.1,0,0,0,0,0,0-.3.6-.9,2.1-1.1,2.8-.1.6-.2,1.4,0,2,.6,1.3,2.2,1.2,3.3.7.6-.3,1.2-.8,1.8-1.3.5-.4,1.1-.9,1.6-1.4,1.1-1,2-2.1,3.1-3.1,1.1-1.1,2-1.7,3.2-2.7,0,0,0,0,0,0Z"/>
            <path class="st15" d="M378.5,247.7c.4-1.5,2.9-8,3.8-9.6,0,0,0,0,0,0-1.6,2.2-3.9,7.6-4.4,9.2-.5,1.7-1,3.8-.7,5.5.4,2.6,2.2,2.8,2.9,2.8.8,0,1.5-.3,2.2-.7.7-.5,1.3-1.5,1.7-2.2,0,0,0,0,0,0-.7,1.2-2.1,2.4-3.5,2.5-.6,0-1.3-.2-1.8-.6-.5-.5-.7-1.3-.8-2-.1-1.6.2-3.3.7-4.8Z"/>
          </g>
        </g>
        <g>
          <path class="st11" d="M417.1,229.4l-7.8,27.3s48.9,2.8,51.6-6.1c2.7-8.9-20.9-37.9-30.7-45.9-11.3-9.2-12-5.4-8.3,3.9,3.9,9.7,10.5,23.5,10.5,23.5l-15.3-2.7Z"/>
          <path class="st17" d="M431.1,227.4c1.2,0,2.4-.4,3.6-.9.9-.4,1.8-.8,2.6-1.3,0,0,.1,0,.2-.1.2,0,.3-.2.5-.3,1-.7,2.1-1.4,3.1-2.1,1.2-.8,2.4-1.7,3.6-2.5,0,0,0,0,0,.1-1.2.8-2.4,1.7-3.6,2.5-1,.7-2,1.4-3.1,2.1,0,0-.2.1-.3.2,0,0-.1,0-.2.1-.9.5-1.8,1-2.8,1.5-1.2.5-2.4.8-3.6.9-.3,0-.6,0-.9,0,0,0,0-.1,0-.2.3,0,.6,0,.9,0ZM421.7,204.5c-.5-.4-1-.8-1.5-1.1,0,0,0,.2,0,.3.5.3.9.6,1.3,1,.9.8,1.7,1.8,2.3,2.9.6,1.1,1.1,2.2,1.5,3.4.4,1.2.8,2.4,1.2,3.6.4,1.2.9,2.3,1.4,3.5.6,1.1,1.3,2.2,2.1,3.1.8.9,1.8,1.7,2.9,2.4,1.1.7,2.2,1.2,3.4,1.5.3,0,.6.2.9.2,0,0,.2,0,.2,0,.8.1,1.7.2,2.5.1,1.3,0,2.5-.3,3.7-.6,1.2-.3,2.4-.7,3.7-1,0,0,0,0,0,0-1.2.3-2.4.7-3.6,1-1.2.3-2.4.5-3.7.6-.8,0-1.6,0-2.3-.1,0,0-.2,0-.2,0-.4,0-.7-.1-1.1-.2-1.2-.3-2.3-.9-3.4-1.5-1.1-.6-2-1.4-2.9-2.3-.8-.9-1.5-2-2.1-3.1-.6-1.1-1-2.3-1.4-3.4-.4-1.2-.7-2.4-1.2-3.6-.4-1.2-.9-2.3-1.5-3.4-.3-.5-.7-1.1-1.1-1.6-.4-.5-.8-.9-1.3-1.3ZM418.4,231.3c0,.4,0,.7,0,1.1,0,0,0,0,0,.1,0,.8.2,1.7.4,2.5.3,1.2.8,2.4,1.4,3.5.6,1.1,1.4,2.1,2.4,2.9,1.8,1.7,4.1,2.9,6.1,4.3,1,.7,2,1.5,2.9,2.4.5.6,1,1.2,1.5,1.9,0,0,.1.1.1.2.2.3.4.6.5,1,.5,1.1.9,2.3,1.1,3.5.1.8.2,1.6.2,2.3h.2c0-.8,0-1.6-.2-2.4-.2-1.2-.6-2.5-1.1-3.6-.1-.3-.3-.6-.4-.8,0,0,0-.1-.1-.2-.4-.7-1-1.4-1.6-2-.9-.9-1.9-1.7-2.9-2.4-2.1-1.4-4.3-2.6-6.1-4.3-.9-.8-1.7-1.8-2.3-2.9-.6-1.1-1.1-2.2-1.4-3.4-.2-.8-.4-1.7-.4-2.5,0,0,0,0,0-.1,0-.3,0-.7,0-1,0-.5,0-1.1.1-1.6h0c0,.5-.1,1.1-.1,1.6ZM416.1,242.7c.5,1.2,1.4,2.1,2.4,2.8,1,.7,2.2,1.2,3.4,1.6,2.4.8,4.8,1.3,7.2,1.9,1.2.3,2.4.6,3.6.9.2,0,.4.1.5.2,0,0,.1,0,.2,0,.9.3,1.9.7,2.7,1.1,1.1.5,2.2,1.2,3,2.1.9.9,1.6,1.9,2,3.1,0,0,0,.1,0,.2,0,0,.1,0,.2,0,0,0,0-.2,0-.2-.4-1.2-1.1-2.3-2-3.1-.9-.9-2-1.6-3.1-2.1-1-.5-1.9-.8-2.9-1.1,0,0-.1,0-.2,0-.1,0-.2,0-.3-.1-1.2-.4-2.4-.7-3.6-.9-2.4-.6-4.9-1-7.2-1.8-1.2-.4-2.3-.9-3.3-1.6-1-.7-1.9-1.6-2.4-2.8-.5-1.1-.7-2.4-.6-3.6.1-1.2.6-2.4,1.1-3.5.5-1,1.1-2,1.8-2.9,0,0,0,0,0-.1.5-.8,1-1.7,1.4-2.5h0c-.4.8-.9,1.6-1.4,2.4,0,0,0,0,0,.1-.6,1-1.3,2-1.8,3-.6,1.1-1,2.3-1.2,3.6-.1,1.3,0,2.5.6,3.7Z"/>
          <g>
            <path class="st15" d="M447.9,236.5c-2.4-1.2-5-2.1-7.5-2.9-2.5-.8-5.2-1.3-7.8-1.7-1.5-.2-3-.4-4.5-.6,0,0,0,0,0,0,2.6.4,5.3,1,7.9,1.7,2.6.7,5.1,1.4,7.7,2.2,1.4.4,2.9.9,4.3,1.4,0,0,0,0,0-.1Z"/>
            <path class="st15" d="M417.3,229.3c.2,0,13.8,2.1,14.3,2.3,0-.2-3.5-6.7-4-7.6,0,0,0-.2-.1-.3-.3-.4-.6-.8-.9-1.2-.4-.5-.7-1.1-1.1-1.6,0,0,0,0,0,0,.4.5.8,1,1.2,1.6.2.2.4.5.5.7-.3-.7-.7-1.3-1-2-.5-1.1-1-2.2-1.5-3.3,0,0,0,0,0,0,1,1.9,2.1,3.7,3.1,5.6,1,1.9,4.9,8.8,4.9,8.8,0,0-15-2.7-15.3-2.7-.1,0,0-.2,0-.2Z"/>
            <path class="st15" d="M419.1,246c.9-3,1.7-6.1,2.7-9.1.6-1.7,1.1-3.4,1.7-5.1,0,0,.1,0,.1,0-.7,3.1-1.5,6.2-2.4,9.2-.9,3-1.7,6.1-2.6,9.1-.5,1.7-1.1,3.4-1.7,5.1,0,0,0,0,0,0,.6-3.1,1.5-6.2,2.4-9.2Z"/>
            <path class="st15" d="M408.7,257.2c.3-.9.8-2.1,1.1-2.9.1-.2.3-.2.2,0-.2.8-.4,1.6-.6,2.4.7,0,1.4,0,2,0,.8,0,1.6,0,2.4.1,1.5,0,3.1.1,4.6.1,3.1,0,6.3,0,9.4,0,6.3-.1,12.6-.5,18.8-1.3,1.7-.2,3.5-.5,5.2-.8,1.8-.3,3.7-.7,5.1-1.1,0,0,0,0,0,0-1.5.6-2.8,1-4.4,1.3-1.6.3-3.1.6-4.7.9-3.1.5-6.3.8-9.5,1-6.3.5-12.6.6-18.9.6-1.8,0-3.5,0-5.3-.1-.9,0-1.8,0-2.7-.1-.9,0-3,0-2.9-.2Z"/>
          </g>
        </g>
      </g>
      <g>
        <g>
          <rect class="st25" x="339.2" y="262.5" width="57.7" height="2.6"/>
          <polygon class="st22" points="339.2 262.5 339.2 265.1 378.4 265.1 376.4 262.5 339.2 262.5"/>
        </g>
        <g>
          <polygon class="st25" points="373.9 265.1 317.7 265.1 313 226.9 369.3 226.9 373.9 265.1"/>
          <path class="st17" d="M346.9,246c0,1.9-1.5,3.4-3.4,3.4s-3.4-1.5-3.5-3.4c0-1.9,1.5-3.4,3.4-3.4s3.4,1.5,3.5,3.4Z"/>
        </g>
      </g>
      <g>
        <g>
          <path class="st26" d="M412.7,208.8c2.3,0,6.8-4.6,8.4-8.3.1-.3-.5-2.8-1-5.9-.3-1.9-.7-4-.8-5.9l-11.9,4s1.5,4,1.8,7.4c0,.3,0,.5,0,.8,0,0,0,0,0,.1-.1,1.5,0,7.8,3.6,7.8Z"/>
          <path class="st15" d="M409.1,200.8s0,0,0,.1c.4,0,.8,0,1.3,0,6.9-.7,7.9-9.3,8-11.9l-11.1,3.7s1.5,4,1.8,7.4c0,.3,0,.5,0,.8Z"/>
        </g>
        <g>
          <path class="st26" d="M417.6,173.5c2.3,3.9,2.8,16.6.4,20.1-3.5,4.9-10.5,6.9-15.1,2.5-4.4-4.3-4.8-20.9-2-24.2,4.1-4.8,13.3-4.2,16.7,1.6Z"/>
          <g>
            <path class="st15" d="M409.2,182.3c-.4,0-.7-.2-1.1-.3-.4-.1-.8-.2-1.1-.5-.2-.2-.1-.5,0-.7.4-.4.9-.4,1.4-.3.6.1.9.4,1.3.8.3.4-.1,1-.6,1Z"/>
            <path class="st15" d="M400.6,183c.4,0,.7-.2,1.1-.4.4-.1.8-.2,1-.6.1-.2,0-.5,0-.7-.4-.4-1-.3-1.5-.2-.5.2-.9.4-1.2.9-.3.5.2,1,.7.9Z"/>
            <path class="st15" d="M409.4,192.3c-.2.2-.4.5-.7.6-.3,0-.7,0-.9-.1,0,0,0,0,0,0,.2.3.7.5,1.1.4.4,0,.5-.4.6-.8,0,0,0,0,0,0Z"/>
            <path class="st15" d="M408.3,189.8c-.4.8-1.1,1.2-1.8,1.4-.3,0-.7.1-1,.1,0,0-.1,0-.2,0,0,0-.1,0-.2,0-.1,0-.2,0-.2-.2h0s0,0,0,0h0s0,0,0,0c0-.7,0-1.7,0-1.7-.2.1-1.4.8-1.4.4,0-2.9,0-6,.5-8.9,0,0,.2,0,.2,0,.2,2.7-.2,5.5,0,8.3.4-.2,1-.5,1.3-.5,0,0,0,1.9,0,2.2,0,0,0,0,0,0,1.1,0,1.9-.3,2.9-1.2,0,0,.1,0,0,0Z"/>
            <g>
              <path class="st15" d="M405.8,191s.6.7,1.5,1c.3,0,.6.1.9,0,.7-.2.6-.9.5-1.4-.1-.4-.4-.8-.4-.8,0,0-.9,1-2.5,1.2Z"/>
              <path class="st0" d="M407.2,192c.3,0,.6.1.9,0,.7-.2.6-.9.5-1.4-.7.1-1.4.7-1.4,1.4Z"/>
            </g>
            <g>
              <path class="st15" d="M407.5,184.5s0,0,0,0c0,.8.3,1.8,1.1,2,0,0,0,0,0,0-.9,0-1.2-1.3-1.1-2.1Z"/>
              <path class="st15" d="M408.1,183.6c1.4-.2,1.7,2.5.5,2.7-1.2.2-1.6-2.5-.5-2.7Z"/>
            </g>
            <g>
              <path class="st15" d="M402.5,184.9s0,0,0,0c.2.8.2,1.8-.5,2.2,0,0,0,0,0,0,.9-.3.8-1.6.6-2.3Z"/>
              <path class="st15" d="M401.6,184.2c-1.4.1-1.1,2.8.2,2.7,1.2,0,.9-2.8-.2-2.7Z"/>
            </g>
          </g>
          <path class="st15" d="M419.6,186.2h0c-.7,0-1.9-2.2-2.3-2.2-.4,0-1.1-.3-1.2-.6,0-.3-.6-4.7-1.4-7-.7-2.2-3.2-3.9-5.4-3.4-2.2.4-3.3,2.6-4.9,2.6-1.6,0-2.3-1.5-3.3-1.2-1,.3-1.7,2.2-1.8,3.7.2-2.9.8-5.3,1.7-6.3,4.1-4.8,13.3-4.2,16.7,1.6,1.4,2.4,2.1,8,2,12.8Z"/>
          <g>
            <path class="st26" d="M417.3,184s2-4.5,4-3.9c2,.6,1.1,6.8-.8,8-1.9,1.2-3.1-.6-3.1-.6v-3.5Z"/>
            <path class="st15" d="M420.9,181.9s0,0,0,0c-1.4.9-1.9,2.4-2.1,4,.3-.6.9-1.1,1.7-.7,0,0,0,0,0,0-.6,0-1,.2-1.4.8-.2.4-.3.9-.5,1.3,0,.1-.3.1-.3,0,0,0,0,0,0,0-.4-1.9.5-4.8,2.5-5.4Z"/>
          </g>
        </g>
      </g>
    </g>
    <g>
      <g>
        <path class="st26" d="M241.5,308.5c.7,1.8,33.7,42.8,35.9,43.6.9.3,7.1-4.2,14.5-9.8,1.6-1.2,3.2-2.5,4.9-3.8,10.8-8.3,22.1-17.4,22.1-17.4l-22-27.5-21.5,18.2-4.7,4s-19.7-10.1-22.2-10.6c-2.5-.6-7.7,1.5-7,3.3Z"/>
        <path class="st17" d="M241.5,308.5c.7,1.8,33.7,42.8,35.9,43.6,1,.4,10.1-6.3,19.4-13.5l-21.4-26.7-4.7,4s-19.7-10.1-22.2-10.6c-2.5-.6-7.7,1.5-7,3.3Z"/>
        <g>
          <path class="st11" d="M241.5,308.5c.7,1.8,33.7,42.8,35.9,43.6.9.3,7.1-4.2,14.5-9.8l-21.2-26.5s-19.7-10.1-22.2-10.6c-2.5-.6-7.7,1.5-7,3.3Z"/>
          <g>
            <g>
              <path class="st15" d="M243.7,307.7c5.7,6.7,28,34.5,33.2,41.5,0,0,0,0,0,0-5.8-6.6-27.9-34.5-33.2-41.5-.1-.1,0-.2.1,0Z"/>
              <path class="st15" d="M252.2,306.6c1.4,1.6,1.9,3.8,1.6,5.5-.2,1.6-1,3.4-2.4,4.5,0,0-.1,0,0,0,2.4-2.6,2.8-6.9.8-9.8,0,0,0-.1,0,0Z"/>
              <path class="st15" d="M267.9,313.7c2.3,2.7,3.8,6.7,3,10.2,0,.1-.2,0-.3,0-.7-3.5-1.7-6.7-3.1-10-.1-.2.2-.4.4-.2Z"/>
              <path class="st15" d="M265.4,312.2c2.3,2.7,3.8,6.7,3,10.2,0,.1-.2,0-.3,0-.7-3.5-1.7-6.7-3.1-10-.1-.2.2-.4.4-.2Z"/>
              <path class="st15" d="M262.9,310.8c2.3,2.7,3.8,6.7,3,10.2,0,.1-.2,0-.3,0-.7-3.5-1.7-6.7-3.1-10-.1-.2.2-.4.4-.2Z"/>
              <path class="st15" d="M260.3,309.3c2.3,2.7,3.8,6.7,3,10.2,0,.1-.2,0-.3,0-.7-3.5-1.7-6.7-3.1-10-.1-.2.2-.4.4-.2Z"/>
              <path class="st17" d="M281.9,342.3c2.5,3.1-2.3,6.9-4.8,3.8-2.5-3.1,2.3-6.9,4.8-3.8Z"/>
            </g>
            <path class="st15" d="M269,308.3c-.7,3-.1,6.3.1,9.3,0,.3.4.4.6.3,0,0,0,0,.1,0,2.2-2.1,4.2-5.2,5-8.2.5-1.8.2-4.5-2-4.9-2.2-.4-3.4,1.7-3.9,3.5ZM271.2,306.3c3.2-2.1,3.1,2.4,2.7,3.7-.3.9-.7,1.7-1,2.5-.8,1.7-1.9,3.2-2.8,4.8,0-1.5-.2-3-.2-4.5,0-1.8-.3-5.4,1.5-6.6Z"/>
            <path class="st15" d="M279.5,326.3c1.6-1.7.4-4-1.1-5.2-2.3-2-5.7-3.5-8.7-3.9,0,0-.1,0-.1.1-.3,0-.5.3-.3.6,1.5,2.6,2.8,5.7,5.1,7.8,1.3,1.2,3.6,2.3,5.1.7ZM272.4,321.3c-.8-1.3-1.5-2.6-2.3-3.9,1.7.8,3.4,1.5,5.1,2.4.8.4,1.6.9,2.3,1.5,1.1.9,3.8,4.6,0,4.6-2.1,0-4-3.1-4.9-4.6Z"/>
          </g>
        </g>
      </g>
      <g>
        <path class="st18" d="M276.6,307.7l22.9,30.9,77.2-53.6,7.4-5.2s2.1,1.4,5.3,3.2c4.4,2.4,10.9,5.5,16.6,6.4,9.6,1.4,25.6,1.3,33.7-9.5,6.8-9.1,3.1-21,3.1-21l-10.5-4.5s-24.9-20.8-41-21.4c-6.9-.3-16.8,4.9-26.1,10.3-9.2,5.4-88.6,64.4-88.6,64.4Z"/>
        <path class="st15" d="M384.2,279.8s2.1,1.4,5.3,3.2c5.6-6.7,17.5-18.9,17.9-19.3l-23.1,16.2Z"/>
        <path class="st15" d="M423.2,247.3c1.5,1,2.9,2.1,4.4,3.2,1.4,1,2.9,2,4.3,3.2,1.4,1.2,2.7,2.4,4,3.6.6.6,1.3,1.2,1.9,1.8.6.6,1.3,1.2,1.8,1.9,0,0,0,.1-.1.1-.7-.5-1.3-1.1-2-1.6-.7-.6-1.4-1.2-2.1-1.8-1.3-1.1-2.7-2.2-4-3.4-1.3-1.1-2.6-2.4-3.9-3.5-1.4-1.2-2.9-2.4-4.4-3.5,0,0,0,0,0,0Z"/>
        <path class="st15" d="M282,306.6c1.5,1.6,2.9,3.3,4.2,5,1.4,1.7,2.8,3.4,4.1,5.1,2.7,3.4,5.5,6.8,8.2,10.3,1.5,1.9,2.9,3.8,4.3,5.8,0,0,0,.2-.2.1-3-3.2-5.7-6.7-8.4-10.1-2.7-3.4-5.5-6.9-8.2-10.3-1.5-1.9-3-3.8-4.3-5.8,0,0,0-.2.1,0Z"/>
        <path class="st15" d="M345.4,306.9c3.8-3,7.8-5.9,11.8-8.7,4-2.8,7.9-5.7,11.9-8.4,1.2-.8,2.3-1.6,3.5-2.3,1.2-.8,2.4-1.5,3.5-2.3,0,0,.1,0,0,.1-1,.7-2,1.6-3.1,2.4-1,.7-2,1.5-2.9,2.2-1.9,1.4-3.9,2.8-5.8,4.2-3.9,2.9-7.9,5.7-11.9,8.4-2.3,1.6-4.5,3.1-6.9,4.6-.1,0-.3-.1-.2-.2Z"/>
        <path class="st15" d="M320.7,275c3.6-2.9,7.4-5.6,11.1-8.3,3.8-2.8,7.5-5.5,11.3-8.3,3.7-2.7,7.5-5.4,11.2-8.1,3.6-2.6,7.3-5.3,11.1-7.6,2.1-1.3,4.3-2.5,6.5-3.5,2.2-1,4.4-2.1,6.7-2.7,0,0,.1,0,0,.1-1.9,1.1-3.9,1.9-5.8,3-1.9,1-3.8,2.1-5.6,3.2-3.8,2.3-7.4,4.9-11,7.5-7.5,5.4-15,10.8-22.6,16.1-4.2,3-8.4,6.1-12.8,8.9-.1,0-.3-.1-.2-.2Z"/>
      </g>
    </g>
  </g>
  <path class="st19" d="M263.9,116c1.8.2,5.2,2.2,6.2,3.4.7.8,1.1,1.8,1.5,2.8.6,1.4,1.7,2.9,1.1,4.5-.4,1.1-2.2,1.5-2,2.9.1.9.7,1.7,1.2,2.5,1.6,2.3,3.2,2.2,2.2,4.1-.4.7-.9,1.4-1.4,2.1-.7.8-1.4,2.2-2.6,2.5-1,.2-1.7-1-2.8-.7-1.4.4-1,2-1.3,3.1-1.3,3.9-1.4,2.9-.8,7.2.1,2.5,0,5,.4,7.5.2,1.3.4,2.6.1,3.9-.4,2.5-1.1,4.9-1.4,7.3-.1,1,0,2.1-.3,3-.3,1.2-1.6,2.6-2.6,2.8-1.5.3-2.5-1.6-3.6-3.7-.9-1.7-1.1-2.6.3-4.1.6-.7,1-1.6,1.5-2.4.3-.4.6-.9.8-1.4,1.2-2.7-2.6-3.6-4.9-4.2-1-.3-2.1.1-3-.3-.2-.1-.5-.4-.7-.6-1.8-2.7-4.7-2.8-7.5-4-1.1-.5-2.1-1.4-3.3-1.6-1.3-.3-3.1.7-4-.6-.4-.6-.7-1.5-1.4-1.8-3.7-2.1-10.8,7.1-11.7,3.9-.2-1.2.2-2.4-.5-3.5-2.5-3.5,0-5.4-.7-9.2-.1-.8-.4-1.7-.7-2.5-.3-.7-.2-1.4.1-2.1.4-.7.7-1.4.7-2.1,0-.5,0-1.1-.5-1.5-.4-.4-1.2-.7-1.5-1.2-.6-1.2,1-2.8,1.7-3.7,2.4-2.9,2.7-1.3,4.8.6,1.6,1.2,3.5,0,5.2-.6.8-.3,1.7-.5,2.5-1,1.2-.8,2.1-2,2.4-3.5.3-.9-.3-2.8.5-3.3.4-.2,1-.1,1.4,0,1.5.4,3.2.6,4.8.3,4.2-.6,6.5-4,8.3-4.3,2.1-.2,1.9,3.4,3.2,3.9,1.2.3,2.1-.8,2.9-1.4.7-.6,1.5-1.1,2.2-1.7.8-.8,1.7-1.8,2.9-1.8h0Z"/>
</svg>