<?xml version="1.0" encoding="UTF-8"?>
<svg xmlns="http://www.w3.org/2000/svg" version="1.1" xmlns:xlink="http://www.w3.org/1999/xlink" viewBox="0 0 822.6 443.2">
  <!-- Generator: Adobe Illustrator 29.3.1, SVG Export Plug-In . SVG Version: 2.1.0 Build 151)  -->
  <defs>
    <style>
      .st0 {
        fill: #484042;
      }

      .st1 {
        fill: url(#linear-gradient2);
      }

      .st2 {
        opacity: .9;
      }

      .st2, .st3, .st4, .st5, .st6, .st7, .st8, .st9, .st10, .st11, .st12, .st13, .st14 {
        isolation: isolate;
      }

      .st2, .st15, .st4, .st5, .st6, .st9, .st10, .st11, .st12, .st16, .st13, .st14 {
        fill: #fff;
      }

      .st17 {
        fill: #895d40;
      }

      .st18 {
        fill: url(#linear-gradient10);
      }

      .st3 {
        fill: url(#radial-gradient4);
      }

      .st3, .st9 {
        opacity: .5;
      }

      .st19, .st7 {
        fill: #f1eee8;
      }

      .st20 {
        fill: #263238;
      }

      .st21 {
        fill: url(#linear-gradient1);
      }

      .st4 {
        opacity: .6;
      }

      .st22 {
        fill: url(#linear-gradient9);
      }

      .st23 {
        fill: url(#linear-gradient8);
      }

      .st24 {
        fill: url(#linear-gradient11);
      }

      .st25 {
        fill: url(#New_Gradient_Swatch_copy_2);
      }

      .st5 {
        opacity: .3;
      }

      .st26 {
        fill: #0c3c45;
      }

      .st6 {
        opacity: .4;
      }

      .st27 {
        fill: url(#radial-gradient1);
      }

      .st7, .st13 {
        opacity: .8;
      }

      .st28 {
        fill: url(#radial-gradient);
        mix-blend-mode: overlay;
      }

      .st29 {
        fill: #c8c8c8;
      }

      .st30 {
        fill: url(#linear-gradient12);
      }

      .st31 {
        fill: none;
        stroke: #fff;
        stroke-miterlimit: 10;
        stroke-width: .3px;
      }

      .st32 {
        fill: url(#linear-gradient7);
      }

      .st10 {
        opacity: .7;
      }

      .st33 {
        fill: url(#linear-gradient4);
      }

      .st34 {
        fill: url(#linear-gradient5);
      }

      .st35 {
        fill: #ffc800;
      }

      .st36 {
        fill: url(#linear-gradient3);
      }

      .st11 {
        opacity: 0;
      }

      .st37 {
        fill: #455a64;
      }

      .st38 {
        fill: url(#radial-gradient2);
      }

      .st12 {
        opacity: .2;
      }

      .st39 {
        fill: #6a6a6d;
      }

      .st16 {
        fill-opacity: 0;
      }

      .st40 {
        fill: url(#linear-gradient6);
      }

      .st41 {
        fill: #dcdcdc;
      }

      .st42 {
        fill: #414143;
      }

      .st43 {
        fill: #ececec;
      }

      .st44 {
        fill: url(#radial-gradient3);
      }

      .st45 {
        fill: #e5e6e6;
      }

      .st46 {
        fill: url(#linear-gradient);
      }

      .st14 {
        opacity: .1;
      }
    </style>
    <linearGradient id="linear-gradient" x1="399.2" y1="257.6" x2="399.2" y2="348.5" gradientUnits="userSpaceOnUse">
      <stop offset="0" stop-color="#143815" stop-opacity=".6"/>
      <stop offset="1" stop-color="#266426" stop-opacity="0"/>
    </linearGradient>
    <linearGradient id="linear-gradient1" x1="473.9" y1="669" x2="360.7" y2="856.8" gradientTransform="translate(0 -604)" gradientUnits="userSpaceOnUse">
      <stop offset="0" stop-color="#e8d332"/>
      <stop offset=".4" stop-color="#9bd153"/>
      <stop offset=".7" stop-color="#59d071"/>
      <stop offset=".9" stop-color="#2fcf83"/>
      <stop offset="1" stop-color="#20cf8b"/>
    </linearGradient>
    <radialGradient id="radial-gradient" cx="393.8" cy="269.3" fx="393.8" fy="269.3" r="267.6" gradientUnits="userSpaceOnUse">
      <stop offset="0" stop-color="#74ff6e" stop-opacity=".6"/>
      <stop offset=".2" stop-color="#76ff6e" stop-opacity=".6"/>
      <stop offset=".3" stop-color="#7fff71" stop-opacity=".5"/>
      <stop offset=".4" stop-color="#8eff75" stop-opacity=".5"/>
      <stop offset=".5" stop-color="#a3ff7b" stop-opacity=".4"/>
      <stop offset=".6" stop-color="#bfff83" stop-opacity=".3"/>
      <stop offset=".7" stop-color="#e0ff8d" stop-opacity=".1"/>
      <stop offset=".8" stop-color="#ffff96" stop-opacity="0"/>
    </radialGradient>
    <linearGradient id="linear-gradient2" x1="546.7" y1="163.6" x2="527.6" y2="93.5" gradientTransform="translate(0 444.3) scale(1 -1)" gradientUnits="userSpaceOnUse">
      <stop offset="0" stop-color="#4b97d2"/>
      <stop offset="0" stop-color="#3f79b1"/>
      <stop offset=".2" stop-color="#366298"/>
      <stop offset=".3" stop-color="#305185"/>
      <stop offset=".4" stop-color="#2b4477"/>
      <stop offset=".5" stop-color="#2d4a7e"/>
      <stop offset=".8" stop-color="#4281ba"/>
      <stop offset="1" stop-color="#4b97d2"/>
    </linearGradient>
    <linearGradient id="linear-gradient3" x1="567.3" y1="167.1" x2="540.4" y2="180.1" gradientTransform="translate(0 444.3) scale(1 -1)" gradientUnits="userSpaceOnUse">
      <stop offset="0" stop-color="#8fc6eb"/>
      <stop offset=".6" stop-color="#e5e5e4"/>
    </linearGradient>
    <radialGradient id="radial-gradient1" cx="575.2" cy="228.2" fx="575.2" fy="228.2" r="37.2" gradientTransform="translate(0 444.3) scale(1 -1)" gradientUnits="userSpaceOnUse">
      <stop offset="0" stop-color="#362719"/>
      <stop offset="1" stop-color="#d69e66"/>
    </radialGradient>
    <linearGradient id="linear-gradient4" x1="2510.3" y1="-3499.1" x2="2451.7" y2="-3431.9" gradientTransform="translate(2694.2 -3370.4) rotate(65.8) scale(1 -1)" gradientUnits="userSpaceOnUse">
      <stop offset="0" stop-color="#4b97d2"/>
      <stop offset=".1" stop-color="#407bb4"/>
      <stop offset=".4" stop-color="#2c477a"/>
      <stop offset=".6" stop-color="#2b4477"/>
      <stop offset=".7" stop-color="#355f95"/>
      <stop offset=".8" stop-color="#3e77af"/>
      <stop offset=".8" stop-color="#4589c2"/>
      <stop offset=".9" stop-color="#4993ce"/>
      <stop offset="1" stop-color="#4b97d2"/>
    </linearGradient>
    <linearGradient id="linear-gradient5" x1="596.2" y1="187.1" x2="545.5" y2="172.4" gradientTransform="translate(0 444.3) scale(1 -1)" gradientUnits="userSpaceOnUse">
      <stop offset="0" stop-color="#6f90eb"/>
      <stop offset=".2" stop-color="#8fc6eb"/>
      <stop offset=".6" stop-color="#e5e5e4"/>
    </linearGradient>
    <radialGradient id="radial-gradient2" cx="586.6" cy="221.9" fx="586.6" fy="221.9" r="29.5" xlink:href="#radial-gradient1"/>
    <linearGradient id="linear-gradient6" x1="598.9" y1="186.1" x2="548.6" y2="163" gradientTransform="translate(0 444.3) scale(1 -1)" gradientUnits="userSpaceOnUse">
      <stop offset=".2" stop-color="#8fc6eb"/>
      <stop offset=".6" stop-color="#e5e5e4"/>
    </linearGradient>
    <radialGradient id="radial-gradient3" cx="590.6" cy="207.2" fx="590.6" fy="207.2" r="27.5" xlink:href="#radial-gradient1"/>
    <radialGradient id="radial-gradient4" cx="528.6" cy="372.3" fx="528.6" fy="372.3" r="204.6" gradientTransform="translate(31.3 710.7) rotate(-4.4) scale(1 -1)" gradientUnits="userSpaceOnUse">
      <stop offset="0" stop-color="#f8ea7c" stop-opacity=".7"/>
      <stop offset="0" stop-color="#f8f07c" stop-opacity=".8"/>
      <stop offset=".4" stop-color="#f9d688" stop-opacity="0"/>
    </radialGradient>
    <linearGradient id="linear-gradient7" x1="527.2" y1="-579.9" x2="523.1" y2="-538.6" gradientTransform="translate(-41.9 -242.5) rotate(-4.4) scale(1 -1)" gradientUnits="userSpaceOnUse">
      <stop offset="0" stop-color="#999"/>
      <stop offset="1" stop-color="#e6e6e6"/>
    </linearGradient>
    <linearGradient id="linear-gradient8" x1="524.8" y1="377.8" x2="565.6" y2="377.8" gradientTransform="translate(.7 670.1) scale(1 -1)" xlink:href="#linear-gradient7"/>
    <radialGradient id="New_Gradient_Swatch_copy_2" data-name="New Gradient Swatch copy 2" cx="579.5" cy="233.7" fx="579.5" fy="233.7" r="16.1" gradientUnits="userSpaceOnUse">
      <stop offset="0" stop-color="#362719"/>
      <stop offset="1" stop-color="#d69e66"/>
    </radialGradient>
    <linearGradient id="linear-gradient9" x1="197.9" y1="-750" x2="168.5" y2="-868.5" gradientTransform="translate(0 -511.7) scale(1 -1)" gradientUnits="userSpaceOnUse">
      <stop offset="0" stop-color="#2b4477"/>
      <stop offset="1" stop-color="#4b97d2"/>
    </linearGradient>
    <linearGradient id="linear-gradient10" x1="214.8" y1="-793.6" x2="171.2" y2="-686" xlink:href="#linear-gradient9"/>
    <linearGradient id="linear-gradient11" x1="1106.5" y1="-2726.9" x2="1154.5" y2="-2726.9" gradientTransform="translate(1288.2 -2533.3) rotate(43.8) scale(1 -1)" xlink:href="#linear-gradient9"/>
    <linearGradient id="linear-gradient12" x1="495.6" y1="801.9" x2="532" y2="801.9" gradientTransform="translate(145.4 1172) rotate(-31.1) scale(1 -1)" xlink:href="#linear-gradient9"/>
  </defs>
  <g class="st8">
    <g id="Layer_2">
      <g>
        <path class="st0" d="M583.7,241.8s-1.2-5.6-1.3-6.9c0-1.3.8-2.7-.1-5-1-2.2-1-3.5-1-4.2s0-5.2-.9-6.7c-.9-1.5-5.1-6.5-11.4-4.4,0,0-3.1-.9-5.4.8-2.3,1.7-5.4,4.2-4.5,7.3.9,3.1,1,4.5.7,6.4-.4,1.9-.8,2.9-.5,4.1.3,1.3,0,2.4.6,4.2.5,1.6.9,5.1.9,6l14.6-3.5,8.4,1.6Z"/>
        <g id="Camada_4">
          <polygon class="st46" points="869.8 363.7 -71.4 363.7 243.4 293.5 554.6 293.5 869.8 363.7"/>
          <path class="st43" d="M256.3,85.2h285.2c7.2,0,13.1,5.9,13.1,13.1v195.2H243.2V98.3c0-7.2,5.9-13.1,13.1-13.1h0Z"/>
          <path class="st20" d="M255.8,87.7h286.4c5.7,0,10.3,4.6,10.3,10.3v193H245.5V98c0-5.7,4.6-10.3,10.3-10.3Z"/>
          <path class="st41" d="M202.7,309.2h392.6v5c0,5.1-4.2,9.3-9.3,9.3H212c-5.1,0-9.3-4.2-9.3-9.3v-5h0Z"/>
          <polygon class="st43" points="202.7 309.2 243.2 293.5 554.7 293.5 595.2 309.2 202.7 309.2"/>
          <polygon class="st20" points="246.8 303.6 273 293.5 524.9 293.5 551 303.6 246.8 303.6"/>
          <rect class="st21" x="262.8" y="103.2" width="272.2" height="172.4"/>
          <rect class="st37" x="262.6" y="103.2" width="272.5" height="6.6"/>
          <path class="st29" d="M267.9,106.5c0,.9-.7,1.6-1.6,1.6s-1.6-.7-1.6-1.6.7-1.6,1.6-1.6,1.6.7,1.6,1.6Z"/>
          <path class="st15" d="M274.6,106.5c0,.9-.7,1.6-1.7,1.6s-1.6-.7-1.6-1.6.7-1.6,1.6-1.6,1.7.7,1.7,1.6Z"/>
          <path class="st35" d="M281.3,106.5c0,.9-.7,1.6-1.6,1.6s-1.6-.7-1.6-1.6.7-1.6,1.6-1.6,1.6.7,1.6,1.6Z"/>
          <rect class="st31" x="329.3" y="241.5" width="140.3" height="8.6"/>
          <rect class="st15" x="331" y="243.1" width="3.2" height="5.3"/>
          <rect class="st15" x="335.4" y="243.1" width="3.2" height="5.3"/>
          <rect class="st15" x="339.9" y="243.1" width="3.2" height="5.3"/>
          <rect class="st15" x="344.3" y="243.1" width="3.2" height="5.3"/>
          <rect class="st15" x="348.7" y="243.1" width="3.2" height="5.3"/>
          <rect class="st15" x="353.2" y="243.1" width="3.2" height="5.3"/>
          <rect class="st15" x="357.6" y="243.1" width="3.2" height="5.3"/>
          <rect class="st15" x="362.1" y="243.1" width="3.2" height="5.3"/>
          <rect class="st15" x="366.5" y="243.1" width="3.2" height="5.3"/>
          <rect class="st15" x="370.9" y="243.1" width="3.2" height="5.3"/>
          <rect class="st15" x="375.4" y="243.1" width="3.2" height="5.3"/>
          <rect class="st15" x="379.8" y="243.1" width="3.2" height="5.3"/>
          <rect class="st15" x="384.3" y="243.1" width="3.2" height="5.3"/>
          <rect class="st15" x="388.7" y="243.1" width="3.2" height="5.3"/>
          <rect class="st15" x="393.2" y="243.1" width="3.2" height="5.3"/>
          <rect class="st15" x="397.6" y="243.1" width="3.2" height="5.3"/>
          <rect class="st15" x="402" y="243.1" width="3.2" height="5.3"/>
          <rect class="st15" x="406.5" y="243.1" width="3.2" height="5.3"/>
          <rect class="st15" x="410.9" y="243.1" width="3.2" height="5.3"/>
          <rect class="st15" x="415.4" y="243.1" width="3.2" height="5.3"/>
          <rect class="st15" x="419.8" y="243.1" width="3.2" height="5.3"/>
          <rect class="st15" x="424.3" y="243.1" width="3.2" height="5.3"/>
          <rect class="st15" x="428.7" y="243.1" width="3.2" height="5.3"/>
          <rect class="st15" x="433.1" y="243.1" width="3.2" height="5.3"/>
          <rect class="st15" x="437.6" y="243.1" width="3.2" height="5.3"/>
          <rect class="st15" x="442" y="243.1" width="3.2" height="5.3"/>
          <rect class="st15" x="446.5" y="243.1" width="3.2" height="5.3"/>
          <rect class="st15" x="450.9" y="243.1" width="3.2" height="5.3"/>
          <rect class="st15" x="455.4" y="243.1" width="3.2" height="5.3"/>
          <rect class="st15" x="459.8" y="243.1" width="3.2" height="5.3"/>
          <rect class="st15" x="464.2" y="243.1" width="3.2" height="5.3"/>
          <g id="circuloload">
            <circle class="st15" cx="399.5" cy="142.2" r="4.4"/>
            <path class="st2" d="M373.8,148c0,2.3,1.9,4.2,4.2,4.2s4.2-1.9,4.2-4.2-1.9-4.2-4.2-4.2-4.2,1.9-4.2,4.2Z"/>
            <path class="st13" d="M360.6,162.6c0,2.2,1.8,4,4,4s4-1.8,4-4-1.8-4-4-4-4,1.8-4,4Z"/>
            <circle class="st10" cx="360" cy="182.3" r="3.8"/>
            <path class="st4" d="M360.7,200.8c0,2,1.6,3.6,3.6,3.6s3.6-1.6,3.6-3.6-1.6-3.6-3.6-3.6-3.6,1.6-3.6,3.6Z"/>
            <path class="st9" d="M373.9,216c0,1.9,1.5,3.3,3.3,3.3s3.3-1.5,3.3-3.3-1.5-3.3-3.3-3.3-3.3,1.5-3.3,3.3Z"/>
            <path class="st6" d="M396.5,222.3c0,1.7,1.4,3.1,3.1,3.1s3.1-1.4,3.1-3.1-1.4-3.1-3.1-3.1-3.1,1.4-3.1,3.1Z"/>
            <path class="st5" d="M419.3,215.5c0,1.6,1.3,2.9,2.9,2.9s2.9-1.3,2.9-2.9-1.3-2.9-2.9-2.9-2.9,1.3-2.9,2.9Z"/>
            <path class="st12" d="M432.5,199.6c0,1.5,1.2,2.7,2.7,2.7s2.7-1.2,2.7-2.7-1.2-2.7-2.7-2.7-2.7,1.2-2.7,2.7Z"/>
            <path class="st14" d="M436.8,181.9c0,1.4,1.1,2.5,2.5,2.5s2.5-1.1,2.5-2.5-1.1-2.5-2.5-2.5-2.5,1.1-2.5,2.5Z"/>
            <circle class="st11" cx="432.9" cy="159.1" r="2.2"/>
            <circle class="st16" cx="417.6" cy="146.2" r="2"/>
          </g>
          <path class="st19" d="M409.9,162.8c1.4.2,4.1,1.7,4.9,2.7.6.6.9,1.4,1.2,2.2.5,1.1,1.4,2.3.9,3.5-.4.9-1.7,1.2-1.6,2.3.1.7.6,1.4.9,1.9,1.2,1.8,2.5,1.8,1.8,3.3-.3.6-.7,1.1-1.1,1.6-.6.7-1.1,1.7-2,2-.8,0-1.4-.8-2.2-.5-1.1.3-.8,1.6-1,2.5-1.1,3.1-1.1,2.3-.7,5.7,0,2,0,4,.3,5.9.2,1,.3,2,.1,3.1-.3,1.9-.9,3.8-1.1,5.7-.1.8,0,1.6-.2,2.3-.2.9-1.2,2-2,2.2-1.2.2-1.9-1.3-2.8-2.9-.7-1.4-.9-2,.2-3.2.5-.6.8-1.2,1.2-1.9.2-.3.5-.7.7-1.1,1-2.1-2-2.8-3.9-3.3-.8-.2-1.6,0-2.4-.2-.2,0-.4-.3-.5-.5-1.4-2.1-3.7-2.2-5.9-3.2-.9-.4-1.6-1.1-2.6-1.3-1-.3-2.4.6-3.1-.5-.3-.5-.5-1.2-1.1-1.4-2.9-1.7-8.5,5.6-9.2,3.1-.1-1,.1-1.8-.4-2.8-1.9-2.8,0-4.2-.5-7.2-.1-.7-.3-1.3-.5-1.9s-.2-1.1.1-1.6c.3-.6.5-1.1.6-1.6,0-.4,0-.8-.4-1.2s-.9-.5-1.1-.9c-.4-.9.8-2.2,1.3-2.9,1.9-2.3,2.1-1,3.8.5,1.3,1,2.8,0,4.1-.5.6-.2,1.4-.4,1.9-.8,1-.6,1.7-1.6,1.9-2.7.2-.7-.3-2.2.4-2.6.3-.2.8,0,1.1,0,1.2.3,2.5.5,3.7.3,3.3-.5,5.1-3.2,6.5-3.3,1.7-.2,1.5,2.7,2.5,3.1.9.2,1.6-.6,2.3-1.1.6-.5,1.1-.8,1.7-1.3.7-.6,1.3-1.4,2.3-1.4h0Z"/>
          <polygon class="st28" points="680 324.7 554.6 293.5 243.2 293.5 112.7 324.7 114.7 47.8 682.5 47.8 680 324.7"/>
        </g>
        <g>
          <g>
            <polygon class="st26" points="499.6 337.2 495.7 342.1 488.2 335.4 482.6 331.6 484.9 330.1 498.4 334.8 499.6 337.2"/>
            <polygon class="st1" points="574.6 280 523.7 295.8 497.8 330.5 494.4 332.9 501.2 339.2 523.4 318 528 310.9 547.8 311.5 580.6 295.4 574.6 280"/>
            <path class="st36" d="M558,274.2l-9.7,11.8s4.8,2,5.4,1.1c.6-1,12-8.5,12-8.5l.5-19.9-6.6-3-1.6,18.6h0Z"/>
            <polygon class="st26" points="505 343.7 497.6 344.4 491.8 344.4 493.7 349 500.5 349.8 505.7 350.3 508.6 346.2 505 343.7"/>
            <path class="st27" d="M538.4,290l10.5-3.9c.7-.2,1.4-.2,2,0l1,.4c.4.2.6.7.4,1.1l-1.9,3.4-13,1,1-1.9h0Z"/>
            <path class="st33" d="M584.9,281.4l4.5,8.9c1,3.8.8,7.9-.6,11.6l-.3.8c-1.6,4.2-5.3,7.3-9.7,8.2l-4.1.8-28.6,7.3-8,7.6-29.3,20.9-6-4,31.8-36,30.3-17.3,14.1-5.8,5.9-2.8v-.2Z"/>
            <path class="st34" d="M560.1,244.1l-3,8.1-1.8,2.9c-2.6,4.4-1,10.1,3.6,12.4h0l.6,2.8,3.7,13.4,10.1,3.3,12-2.9,3.3-20.5v-20.9l-13.3-2.5-15.3,3.7h0v.2Z"/>
            <g>
              <path class="st38" d="M561.7,224.4s-2.1,13.3,2.9,15.7c4.4,2,10.3-4,10.3-4l.7-3.2s2.1.5,2.5-2.5c.4-4-2.4-2.3-2.4-2.3l-.2-4.9c-.1,0-9.7-9.5-13.8,1.2Z"/>
              <path class="st0" d="M574.7,216.8h-.6c-.6-1.5-2-1.3-3.7-1.3s-2,.2-2.7.7c-.8.6-1.2.3-2.1.2-.2,0-.9.8-1.1.8-2.4,0-4.4,2.1-4.4,4.4s-1.2,3,1.2,3,4.6-1.1,5.3-1.6c.8-.6,1.4-1.3,2.3-1.2.2,0,1.3-1.1,1.3-1.1.6,1.5,2.7,4.4,4.4,4.4s4.4-1.9,4.4-4.2-2-4.2-4.4-4.2Z"/>
            </g>
            <polygon class="st40" points="588.8 242.9 579.8 250.9 578.4 257.2 582.1 275.6 565.2 286.7 568.8 289.9 593.6 280.6 592.8 262.5 588.8 242.9"/>
            <path class="st44" d="M554.2,289.4l8.1-2.6h4c.2,0,.5,0,.6.3l1,1.1c.5.5.2,1.3-.5,1.4l-3.4.4-10.7,1,.8-1.7h.1Z"/>
          </g>
          <g id="computador">
            <path class="st3" d="M509.9,294l-57,25.1s-37.7-88.2-18-77c.6.3,21.1-64.7,21.1-64.7l104.7-21.9,86.9,25.5,26.5,73-.4,71-123.3-34.2-40.5,3.1h0Z"/>
            <g>
              <g>
                <polygon class="st32" points="500.2 267.5 509.9 294 550.5 290.9 540.8 264.3 500.2 267.5"/>
                <rect class="st23" x="525.5" y="291.3" width="40.8" height="1.8" transform="translate(-20.8 42.7) rotate(-4.4)"/>
              </g>
              <rect class="st39" x="510" y="292.5" width="40.8" height="1.8" transform="translate(-20.9 41.6) rotate(-4.4)"/>
            </g>
          </g>
          <path class="st25" d="M567.7,248.7l7.2-4.7v-7.9c-.6.6-3.6,3.4-6.7,4.1l-.5,8.4Z"/>
        </g>
        <g id="homem01">
          <g>
            <path class="st17" d="M191.6,162.9c4-1.2,8.2.8,9.6,4.8,0,0,0,.2,0,.4.2,1-.2,2.3.2,2.9s1.9,4,1.9,4l-1,1.3s-1.5,6.9-1.6,7.5-.8.7-1.5.6c-.6,0-4.6-.4-4.6-.4l1.1,5.7-12.7-.7s1.2-8.1.7-13.7,2.2-9.2,4.7-11.1c.6-.5,1.7-1,2.9-1.3h.2Z"/>
            <path class="st0" d="M203.1,183.2c-.5-1.1-1-2.1-1.6-2.8h0c-.5,0-1.2-.2-1.9-.4-.5,1-3-1.2-2.1-2.4,1.1-1.2,3.1-1.1,4.7-.5,0-.5,0-.7,0-.8-.7-.2-1.6-.6-2.3-.7-.5,0-1,0-1.3.2-.7.5-1.5.8-2.2,1.5-1.2,1-2.2,1.1-3.4,0-1.3-1.1-2.2-6.3-2.2-6.4.6-.5,1.2-1.1,1.9-1.5,1-.5,1.2-1.1.7-2.1-1-2.2-.5-2.9,1.9-3.1.5,0,1,0,1.5,0,1,0,1.6.2,2.2.7l.2.2s0,0,0,0c0,0,0,.2.2.2.4.5.7,1,1,1.5,1.5-1.5,1.5-2.8-.2-3.4,0-.8.5-1.8.2-2.5-.4-.8,0-2.8-2.7-2.7-.7,0-.8-1.1-1.3-1.1-.8,0-1.1.7-1.9.6-.8-.2-1.1-1.2-1.9-1.1-1.7.4-1.5,1.1-1.9,1.2-.5,0-1.3-.7-2.2-.4-1.7.8-.6,1.9-2.5,1.6-.8,0-1.9,0-2.2,1.3-.4,1.7-1.5-.6-3,1s1.3,1.8-.7,2.8c-1.5.6-.7,3,.1,3.9-.5,1.1-1.6,1.6.1,3.5,1.2,1.5-1,2.2,1.2,4.4,1.3,1.3,1.7,4.4,2.5,5.6h0c.5-.5,1-1,1.3-1.5,0-.5.2-5.4.4-5.9,0-.2,0-.6,0-.8.2-1.1,1.1-1.6,2.1-1.2.7.2,1.7.8,1.9,1.5.4,1.1.4,5.7.4,6.9,0,1.9.6,2.9,2.5,3.5.5,0,5,1.1,6.9,1.5.6,0,1.1,0,1.7,0h0c.4,0,1.9-1.3,1.5-2.4h0Z"/>
            <polygon class="st22" points="169.1 243.5 162.7 292.3 152 348.7 160.6 348.7 179 293.1 183.7 279.2 186.2 298.6 191.1 348.7 198 348.7 201.3 285.7 203.5 247.4 169.1 243.5"/>
            <polygon class="st26" points="192.2 348.7 192.2 354.8 206.8 354.8 196.8 348.7 192.2 348.7"/>
            <polygon class="st26" points="155.1 347.4 148.4 358 159.4 352.7 158.6 347.4 155.1 347.4"/>
            <path class="st18" d="M163.6,201.9l3.8,46.1,22,3.8,2.8-1.9,1.9,1.9,10.2-2.7,7.1-58.4-40-5.1-1.9,1.7c-4.2,3.6-6.4,9.1-6,14.6h0Z"/>
            <polygon class="st17" points="238.8 227.2 233.5 227.5 235.1 232.5 239.6 232.5 246 236.5 251.3 237 250.2 234 246.7 230.5 244.3 228.2 248 226 247.2 224.9 238.8 227.2"/>
            <polygon class="st24" points="220.9 222.1 211.5 190.7 207.3 224.9 211 233.3 236 234.4 235.7 226.4 220.9 222.1"/>
            <path class="st45" d="M182.5,186.2s10.5,37,10.8,36.6c.2-.5,9.7-34.4,9.7-34.4l-20.5-2.2h0Z"/>
            <polygon class="st42" points="190.9 188.7 192.7 192.2 196.2 192.2 197.8 189.1 190.9 188.7"/>
            <path class="st42" d="M184.2,236.7c5.9-11.3,10.3-31.7,8.5-44.7h3.5c5.4,16.5-4.7,46.1-4.7,46.1,0,0-2.3,3.8-8.4,6.8.4-3.1.7-5.3,1.1-8.2h0Z"/>
            <path class="st7" d="M210.5,208.9v-10.5h17.5v10.5h-17.5ZM210.5,215.9h17.5v10.5h-17.5v-10.5ZM235.1,226.4v-10.5h17.5v10.5h-17.5ZM252.6,208.9h-17.5v-10.5h17.5v10.5ZM210.5,184.3c-3.9,0-7,3.1-7,7v35.1c0,3.9,3.1,7,7,7h42.1c3.9,0,7-3.1,7-7v-35.1c0-3.9-3.1-7-7-7h-42.1Z"/>
            <polygon class="st17" points="195.4 231.1 199.9 227.4 206.8 229.4 208 234.9 196.6 236.4 195.4 231.1"/>
            <path class="st30" d="M168.2,188.1l3.3-2.5,8,15.5-4.9,25.8,20.6,2.5,3.1,8.2-34.6,2.8-4.9-5.2,1.4-31.6c.3-6.1,3.2-11.7,8-15.5Z"/>
          </g>
        </g>
        <path class="st0" d="M577.3,244c-1.5-5.8.9-12.7.9-12.7l-.4.3c-.7,1.8-2.2,1.4-2.2,1.4,0,0-1.5,7.1,0,12.9,1.5,5.8-.4,7-.7,9.3-.3,2.4,0,4.1.6,4.4,0,0-.7-1.8.6-5.8s2.8-4.1,1.3-9.9Z"/>
        <path class="st0" d="M561.6,243.8c1.5,5.8-.4,7-.7,9.3-.3,2.4,0,4.1.6,4.4,0,0-.7-1.8.6-5.8.7-2.3,2.8-4.1,1.3-9.9-.3-1.2-.5-2.4-.5-3.6-1-1.6-1.4-3.9-1.5-6.2-.4,2.3-.9,7.3.2,11.6Z"/>
      </g>
    </g>
  </g>
</svg>