<?xml version="1.0" encoding="UTF-8"?><svg id="Layer_2" xmlns="http://www.w3.org/2000/svg" xmlns:xlink="http://www.w3.org/1999/xlink" viewBox="0 0 392.58 238.26"><defs><style>.cls-1{opacity:.2;}.cls-1,.cls-2,.cls-3,.cls-4,.cls-5,.cls-6,.cls-7,.cls-8,.cls-9,.cls-10,.cls-11,.cls-12{fill:#fff;}.cls-13{fill:none;stroke:#fff;stroke-miterlimit:10;stroke-width:.33px;}.cls-2{opacity:.05;}.cls-14{fill:#263238;}.cls-15{fill:#f1eee8;}.cls-4{opacity:.5;}.cls-16{fill:#455a64;}.cls-5{opacity:.9;}.cls-17{fill:#ffc800;}.cls-6{opacity:.3;}.cls-7{opacity:.8;}.cls-8{opacity:.4;}.cls-9{opacity:.1;}.cls-18{fill:#ececec;}.cls-19{fill:#dcdcdc;}.cls-20{fill:#c8c8c8;}.cls-10{opacity:.6;}.cls-11{opacity:.7;}.cls-12{opacity:0;}.cls-21{fill:url(#linear-gradient);}</style><linearGradient id="linear-gradient" x1="271.26" y1="-20.25" x2="158.07" y2="167.6" gradientUnits="userSpaceOnUse"><stop offset=".08" stop-color="#e8d332"/><stop offset=".38" stop-color="#9bd153"/><stop offset=".67" stop-color="#59d071"/><stop offset=".88" stop-color="#2fcf83"/><stop offset=".98" stop-color="#20cf8b"/></linearGradient></defs><g id="Camada_4"><path class="cls-18" d="M53.68,0h285.22c7.24,0,13.11,5.88,13.11,13.11v195.22H40.56V13.11c0-7.24,5.88-13.11,13.11-13.11Z"/><path class="cls-14" d="M53.12,2.54h286.35c5.68,0,10.29,4.61,10.29,10.29v192.97H42.83V12.83c0-5.68,4.61-10.29,10.29-10.29Z"/><path class="cls-19" d="M0,223.96h392.58v4.98c0,5.14-4.17,9.32-9.32,9.32H9.32c-5.14,0-9.32-4.17-9.32-9.32v-4.98h0Z"/><polygon class="cls-18" points="0 223.96 40.56 208.34 352.02 208.34 392.58 223.96 0 223.96"/><polygon class="cls-14" points="44.19 218.42 70.36 208.34 322.22 208.34 348.39 218.42 44.19 218.42"/><rect class="cls-21" x="60.17" y="17.98" width="272.23" height="172.37"/><rect class="cls-16" x="59.94" y="17.98" width="272.47" height="6.63"/><path class="cls-20" d="M65.22,21.3c0,.91-.74,1.65-1.64,1.65s-1.64-.74-1.64-1.65.74-1.64,1.64-1.64,1.64.74,1.64,1.64Z"/><path class="cls-3" d="M71.93,21.3c0,.91-.74,1.65-1.65,1.65s-1.64-.74-1.64-1.65.74-1.64,1.64-1.64,1.65.74,1.65,1.64Z"/><path class="cls-17" d="M78.65,21.3c0,.91-.74,1.65-1.64,1.65s-1.64-.74-1.64-1.65.74-1.64,1.64-1.64,1.64.74,1.64,1.64Z"/><rect class="cls-13" x="126.68" y="156.27" width="140.33" height="8.58"/><rect class="cls-3" x="128.31" y="157.91" width="3.18" height="5.32"/><rect class="cls-3" x="132.75" y="157.91" width="3.18" height="5.32"/><rect class="cls-3" x="137.2" y="157.91" width="3.18" height="5.32"/><rect class="cls-3" x="141.64" y="157.91" width="3.18" height="5.32"/><rect class="cls-3" x="146.08" y="157.91" width="3.18" height="5.32"/><rect class="cls-3" x="150.52" y="157.91" width="3.18" height="5.32"/><rect class="cls-3" x="154.97" y="157.91" width="3.18" height="5.32"/><rect class="cls-3" x="159.41" y="157.91" width="3.18" height="5.32"/><rect class="cls-3" x="163.85" y="157.91" width="3.18" height="5.32"/><rect class="cls-3" x="168.29" y="157.91" width="3.18" height="5.32"/><rect class="cls-3" x="172.73" y="157.91" width="3.18" height="5.32"/><rect class="cls-3" x="177.18" y="157.91" width="3.18" height="5.32"/><rect class="cls-3" x="181.62" y="157.91" width="3.18" height="5.32"/><rect class="cls-3" x="186.06" y="157.91" width="3.18" height="5.32"/><rect class="cls-3" x="190.5" y="157.91" width="3.18" height="5.32"/><rect class="cls-3" x="194.95" y="157.91" width="3.18" height="5.32"/><rect class="cls-3" x="199.39" y="157.91" width="3.18" height="5.32"/><rect class="cls-3" x="203.83" y="157.91" width="3.18" height="5.32"/><rect class="cls-3" x="208.27" y="157.91" width="3.18" height="5.32"/><rect class="cls-3" x="212.72" y="157.91" width="3.18" height="5.32"/><rect class="cls-3" x="217.16" y="157.91" width="3.18" height="5.32"/><rect class="cls-3" x="221.6" y="157.91" width="3.18" height="5.32"/><rect class="cls-3" x="226.04" y="157.91" width="3.18" height="5.32"/><rect class="cls-3" x="230.49" y="157.91" width="3.18" height="5.32"/><rect class="cls-3" x="234.93" y="157.91" width="3.18" height="5.32"/><rect class="cls-3" x="239.37" y="157.91" width="3.18" height="5.32"/><rect class="cls-3" x="243.81" y="157.91" width="3.18" height="5.32"/><rect class="cls-3" x="248.26" y="157.91" width="3.18" height="5.32"/><rect class="cls-3" x="252.7" y="157.91" width="3.18" height="5.32"/><rect class="cls-3" x="257.14" y="157.91" width="3.18" height="5.32"/><rect class="cls-3" x="261.58" y="157.91" width="3.18" height="5.32"/><g id="circuloload"><circle class="cls-3" cx="196.8" cy="57.04" r="4.43"/><path class="cls-5" d="M171.13,62.77c0,2.33,1.89,4.21,4.21,4.21s4.21-1.89,4.21-4.21-1.89-4.21-4.21-4.21-4.21,1.89-4.21,4.21Z"/><path class="cls-7" d="M157.92,77.4c0,2.21,1.79,3.99,3.99,3.99s3.99-1.79,3.99-3.99-1.79-3.99-3.99-3.99-3.99,1.79-3.99,3.99Z"/><circle class="cls-11" cx="157.33" cy="97.05" r="3.78"/><path class="cls-10" d="M158.02,115.59c0,1.97,1.59,3.56,3.56,3.56s3.56-1.59,3.56-3.56-1.59-3.56-3.56-3.56-3.56,1.59-3.56,3.56Z"/><path class="cls-4" d="M171.23,130.76c0,1.85,1.5,3.34,3.34,3.34s3.34-1.5,3.34-3.34-1.5-3.34-3.34-3.34-3.34,1.5-3.34,3.34Z"/><path class="cls-8" d="M193.82,137.1c0,1.73,1.4,3.12,3.12,3.12s3.12-1.4,3.12-3.12-1.4-3.12-3.12-3.12-3.12,1.4-3.12,3.12Z"/><path class="cls-6" d="M216.69,130.27c0,1.61,1.3,2.91,2.91,2.91s2.91-1.3,2.91-2.91-1.3-2.91-2.91-2.91-2.91,1.3-2.91,2.91Z"/><path class="cls-1" d="M229.82,114.37c0,1.49,1.2,2.69,2.69,2.69s2.69-1.2,2.69-2.69-1.2-2.69-2.69-2.69-2.69,1.2-2.69,2.69Z"/><path class="cls-9" d="M234.17,96.66c0,1.36,1.11,2.47,2.47,2.47s2.47-1.11,2.47-2.47-1.11-2.47-2.47-2.47-2.47,1.11-2.47,2.47Z"/><circle class="cls-2" cx="230.24" cy="73.86" r="2.25"/><circle class="cls-12" cx="214.91" cy="61.04" r="2.04"/></g><path class="cls-15" d="M207.23,77.63c1.41.17,4.05,1.69,4.87,2.7.55.62.85,1.42,1.2,2.19.47,1.1,1.37,2.31.9,3.54-.35.9-1.73,1.19-1.56,2.28.11.67.56,1.36.94,1.92,1.24,1.83,2.5,1.76,1.75,3.26-.29.57-.68,1.11-1.06,1.63-.57.66-1.13,1.73-2,1.98-.76.13-1.37-.78-2.18-.53-1.12.28-.77,1.59-.99,2.47-1.05,3.07-1.11,2.27-.66,5.65.09,1.97,0,3.96.3,5.92.17,1.01.28,2.04.11,3.06-.29,1.94-.89,3.81-1.11,5.74-.11.79-.04,1.62-.23,2.35-.21.91-1.25,2.02-2.03,2.21-1.2.25-1.94-1.26-2.82-2.88-.71-1.37-.87-2.02.24-3.18.48-.56.76-1.24,1.18-1.86.23-.35.48-.7.66-1.07.96-2.12-2.03-2.83-3.85-3.28-.79-.21-1.64.12-2.37-.25-.2-.1-.38-.29-.54-.46-1.38-2.14-3.7-2.16-5.92-3.18-.85-.41-1.65-1.09-2.58-1.27-.99-.27-2.41.56-3.12-.46-.31-.5-.53-1.15-1.14-1.39-2.92-1.68-8.47,5.6-9.21,3.05-.14-.96.14-1.85-.43-2.78-1.94-2.75.06-4.25-.52-7.24-.1-.66-.3-1.31-.51-1.94-.21-.57-.19-1.12.1-1.64.28-.56.54-1.07.55-1.63,0-.41-.07-.85-.37-1.15-.31-.32-.93-.51-1.15-.93-.44-.92.82-2.18,1.32-2.9,1.89-2.3,2.15-1.01,3.77.48,1.27.98,2.78-.05,4.07-.47.65-.23,1.35-.41,1.93-.78.96-.59,1.66-1.6,1.87-2.72.23-.73-.27-2.21.4-2.58.33-.17.76-.1,1.11-.03,1.18.33,2.5.47,3.74.27,3.31-.5,5.14-3.16,6.52-3.35,1.69-.15,1.47,2.69,2.52,3.09.91.24,1.65-.61,2.31-1.1.56-.46,1.14-.84,1.7-1.33.67-.59,1.3-1.45,2.29-1.39h.02Z"/></g></svg>