<?xml version="1.0" encoding="UTF-8"?>
<svg id="Layer_1" xmlns="http://www.w3.org/2000/svg" version="1.1" xmlns:xlink="http://www.w3.org/1999/xlink" viewBox="0 0 360.4 103.2">
  <!-- Generator: Adobe Illustrator 29.3.1, SVG Export Plug-In . SVG Version: 2.1.0 Build 151)  -->
  <defs>
    <style>
      .st0 {
        fill: url(#linear-gradient2);
      }

      .st1, .st2 {
        fill: #757472;
      }

      .st1, .st3, .st4, .st5, .st6 {
        stroke-miterlimit: 10;
      }

      .st1, .st4, .st5 {
        stroke: #757472;
        stroke-width: .2px;
      }

      .st7, .st4 {
        fill: #bdbcb9;
      }

      .st8 {
        fill: #f2eee8;
      }

      .st9 {
        fill: url(#linear-gradient1);
      }

      .st10 {
        opacity: .4;
      }

      .st11, .st3, .st6 {
        fill: none;
      }

      .st12 {
        fill: url(#radial-gradient);
      }

      .st13 {
        clip-path: url(#clippath-1);
      }

      .st14, .st5 {
        fill: #8c8c8b;
      }

      .st15 {
        display: none;
        opacity: .6;
      }

      .st3 {
        stroke-width: .5px;
      }

      .st3, .st6 {
        stroke: #8c8c8b;
      }

      .st16 {
        fill: #3461ad;
      }

      .st17 {
        clip-path: url(#clippath-2);
      }

      .st18 {
        fill: #ce5344;
      }

      .st19 {
        fill: url(#linear-gradient);
      }

      .st20 {
        clip-path: url(#clippath);
      }

      .st6 {
        stroke-width: .5px;
      }
    </style>
    <linearGradient id="linear-gradient" x1="63.9" y1="26.8" x2="109.8" y2="97.6" gradientUnits="userSpaceOnUse">
      <stop offset="0" stop-color="#493594"/>
      <stop offset=".2" stop-color="#40479e"/>
      <stop offset=".4" stop-color="#3956a6"/>
      <stop offset=".6" stop-color="#355eab"/>
      <stop offset="1" stop-color="#3461ad"/>
    </linearGradient>
    <linearGradient id="linear-gradient1" x1="57.5" y1="53.7" x2="-3.6" y2="18.7" xlink:href="#linear-gradient"/>
    <clipPath id="clippath">
      <polygon class="st11" points="65.6 25.4 23.4 8.4 0 69.9 39.3 71 65.6 25.4"/>
    </clipPath>
    <linearGradient id="linear-gradient2" x1="56.6" y1="64" x2="7.7" y2="5.8" gradientUnits="userSpaceOnUse">
      <stop offset="0" stop-color="#757472"/>
      <stop offset="0" stop-color="#777674"/>
      <stop offset=".2" stop-color="#959492"/>
      <stop offset=".4" stop-color="#abaaa7"/>
      <stop offset=".6" stop-color="#b8b7b4"/>
      <stop offset=".7" stop-color="#bdbcb9"/>
    </linearGradient>
    <radialGradient id="radial-gradient" cx="6.8" cy="44.1" fx="6.8" fy="44.1" r="24.2" gradientTransform="translate(34.5 5.2) scale(.9)" gradientUnits="userSpaceOnUse">
      <stop offset="0" stop-color="#bdbcb9"/>
      <stop offset=".3" stop-color="#bab9b6"/>
      <stop offset=".5" stop-color="#b1b0ad"/>
      <stop offset=".7" stop-color="#a2a19e"/>
      <stop offset=".9" stop-color="#8d8c89"/>
      <stop offset="1" stop-color="#757472"/>
    </radialGradient>
    <clipPath id="clippath-1">
      <circle class="st11" cx="40.6" cy="45" r="13.7"/>
    </clipPath>
    <clipPath id="clippath-2">
      <circle class="st11" cx="40.6" cy="45" r="18.6"/>
    </clipPath>
  </defs>
  <g id="logosbfp">
    <g id="faixas">
      <polygon class="st8" points="127.7 34.6 87.5 34.6 87.5 34.6 99.5 55.4 127.7 55.4 127.7 34.6"/>
      <polygon class="st18" points="127.7 60.6 102.5 60.6 102.5 60.6 114.5 81.4 127.7 81.4 127.7 60.6"/>
    </g>
    <g id="titulo">
      <g>
        <path class="st8" d="M132.8,55.4l.3-1.4,2.3-.6,3.4-16.1-2-.6.3-1.4h7l-.3,1.4-2.3.6-3.4,16.1,2,.6-.3,1.4h-7Z"/>
        <path class="st8" d="M153.7,36.5c.8,0,1.6.1,2.1.3.6.2,1,.5,1.4.8.1.1.2.3.2.4,0,.2,0,.3-.2.5l-.3.6c-.2.2-.3.4-.5.4s-.3,0-.5-.1c-.4-.2-.7-.4-1.1-.6-.4-.2-.8-.2-1.3-.2-.8,0-1.4.3-1.8.8s-.6,1.2-.6,1.9,0,.9.3,1.3.4.7.7,1.1c.4.4.7.7.9,1,.2.3.5.6.9,1,.5.6,1,1.3,1.3,1.9.3.6.5,1.4.5,2.2s-.2,2.1-.6,3c-.4.9-1,1.5-1.7,2s-1.7.7-2.8.7-1.2,0-1.7-.2c-.5-.1-.9-.3-1.3-.6-.4-.2-.7-.5-.9-.7-.2-.2-.2-.3-.2-.5,0-.2,0-.4.2-.5l.3-.5c.2-.2.3-.4.5-.4s.3,0,.5.2c.5.4.9.7,1.3.9.4.2.9.3,1.5.3s1-.1,1.4-.4c.4-.3.7-.7.8-1.1.2-.5.3-.9.3-1.4s0-.9-.3-1.4c-.2-.5-.4-.9-.7-1.3-.3-.3-.5-.7-.8-1-.3-.3-.6-.7-1-1.2-.5-.5-.9-1.1-1.2-1.8s-.5-1.4-.5-2.2.2-1.9.6-2.7.9-1.4,1.6-1.9c.7-.5,1.6-.7,2.6-.7Z"/>
        <path class="st8" d="M161.8,37c.1,0,.3,0,.5,0,.2,0,.4,0,.6,0,.2,0,.5,0,.7,0h5.2c.2,0,.4,0,.4.1,0,0,.1.2,0,.4l-.2,1c0,.2-.1.3-.2.4s-.3.1-.5.1h-5l-1.2,5.8h4.2c.2,0,.4,0,.5.1s0,.2,0,.4l-.2,1c0,.2-.1.3-.2.4,0,0-.3.1-.5.1h-4.3l-1.4,6.6h5.6c.2,0,.3,0,.4.1s0,.2,0,.4l-.2.9c0,.2-.2.4-.3.5-.1,0-.3.1-.4.1h-6.3c-.6,0-1-.1-1.3-.3-.2-.2-.3-.7-.1-1.5l3.4-16c0-.2.1-.3.2-.4,0-.1.2-.2.3-.2Z"/>
        <path class="st8" d="M172.6,36.8h2.4c.2,0,.3,0,.4.2s.1.2.1.4v1c0,.5,0,1.1,0,1.7,0,.7,0,1.4,0,2.2,0,.8,0,1.5,0,2.3s0,1.4,0,2.1c0,.6,0,1.1,0,1.5h.2c.2-.5.4-1,.7-1.7.3-.7.6-1.5,1-2.3s.7-1.7,1.1-2.5c.4-.8.7-1.6,1-2.4s.6-1.3.8-1.8c.1-.2.2-.4.3-.5,0,0,.3,0,.5,0h2.5c.3,0,.4,0,.5.2,0,.1,0,.3,0,.5l-3.7,17.2c0,.2-.1.4-.2.5-.1.1-.3.2-.5.2h-1.2c-.2,0-.4,0-.4-.2,0-.1,0-.3,0-.5l2.3-10.7c.2-.8.3-1.5.5-2.1.2-.6.3-1.2.4-1.7.1-.5.2-.8.3-1.1h-.2c-.2.6-.6,1.4-.9,2.3-.4.9-.8,1.9-1.2,3-.4,1.1-.9,2.1-1.3,3.1-.4,1-.8,1.9-1.2,2.7-.3.8-.6,1.4-.8,1.9,0,.2-.2.3-.3.3,0,0-.2.1-.4.1h-.9c-.2,0-.3,0-.4-.1,0,0-.1-.2-.1-.4v-3.8c0-.9,0-1.9,0-2.9,0-1,0-2.1,0-3.2,0-1.1,0-2.1,0-3h-.2c0,.4-.2.9-.3,1.5s-.2,1.3-.4,2-.3,1.4-.4,2l-2.1,10.2c0,.2,0,.4-.2.5,0,0-.2.1-.4.1h-1.2c-.4,0-.5-.2-.4-.6l3.7-17.3c0-.2.1-.4.2-.5,0,0,.3-.1.5-.1Z"/>
        <path class="st8" d="M188.4,36.8h1.3c.2,0,.3,0,.4.2s0,.3,0,.5l-3.7,17.3c0,.2-.2.4-.3.5s-.3.2-.6.2h-1.1c-.2,0-.4,0-.5-.2s-.1-.3,0-.5l3.7-17.4c0-.2.1-.3.3-.4.1,0,.3-.1.5-.1Z"/>
        <path class="st8" d="M194.6,36.8h2.2c.2,0,.4,0,.4,0,0,0,.1.2.1.4,0,.4,0,.9.2,1.6,0,.7.1,1.5.2,2.4,0,.9.2,1.8.3,2.8,0,1,.2,1.9.2,2.9,0,.9.1,1.8.2,2.6,0,.8,0,1.4.1,1.9h.2c0-.5.2-1.1.2-1.7s.2-1.2.3-1.9c.1-.6.2-1.2.3-1.8l1.8-8.6c0-.2.1-.4.2-.5.1,0,.2-.1.4-.1h1.1c.2,0,.4,0,.4.2s0,.2,0,.4l-3.7,17.4c0,.2-.1.4-.2.5s-.3.2-.5.2h-1.7c-.2,0-.4,0-.5-.2,0-.1-.1-.3-.2-.5,0-.4,0-.9-.2-1.6,0-.7-.1-1.5-.2-2.3s-.2-1.8-.2-2.8c0-1-.2-2-.2-2.9,0-1-.2-1.9-.2-2.8,0-.9-.2-1.8-.2-2.5h-.1c0,.3,0,.7-.2,1.3,0,.6-.2,1.2-.3,1.9-.1.7-.3,1.5-.5,2.4l-2,9.5c0,.2,0,.3-.2.4,0,.1-.2.2-.5.2h-1.1c-.2,0-.3,0-.4-.1,0,0-.1-.3,0-.5l3.7-17.3c0-.2.1-.4.2-.5,0-.1.3-.2.5-.2Z"/>
        <path class="st8" d="M212.8,36.8c.2,0,.4,0,.5.2s.1.2.1.4c0,1.8,0,3.6,0,5.4,0,1.8,0,3.6-.2,5.4,0,1.8-.1,3.6-.2,5.4v.4c0,.1,0,.2,0,.3l-.2.7c0,.2-.1.4-.2.4s-.2.1-.4.1h-1.1c-.2,0-.3,0-.4-.1,0,0-.1-.2-.1-.5l.2-5.7h-3.6l-2.3,5.7c0,.2-.2.3-.3.4,0,0-.2.1-.5.1h-1.1c-.2,0-.4,0-.4-.1,0,0,0-.2,0-.4v-.6c.1,0,.2-.2.2-.2,0,0,0-.1,0-.2,1.1-2.8,2.2-5.6,3.4-8.3s2.2-5.4,3.4-8.1c0-.2.2-.4.3-.5.1,0,.3-.1.5-.1h2.5ZM208,46.9h3c0-1.2,0-2.5.2-3.8s.1-2.6.2-3.8h-.5c-.5,1.2-.9,2.5-1.4,3.8-.5,1.3-1,2.6-1.5,3.8ZM214,31.7h1.7c.2,0,.4,0,.4.2,0,.2,0,.3-.2.5l-3,2.8c-.1.1-.3.2-.4.3-.1,0-.3,0-.5,0h-1.4c-.3,0-.4,0-.4-.2,0-.1,0-.3.2-.4l2.8-2.9c.1-.1.2-.2.4-.3.1,0,.3,0,.5,0Z"/>
        <path class="st8" d="M219.6,36.9c.2,0,.4,0,.7,0,.3,0,.6,0,.9,0h1.7c.8,0,1.6.1,2.2.4.6.3,1.1.7,1.4,1.3.3.6.5,1.3.5,2.1s0,.5,0,.9c0,.3,0,.6-.2,1v.6c-.3.8-.6,1.5-.9,2.1-.3.6-.7,1-1.1,1.3-.4.3-.9.6-1.4.7h0c0,.1,1.4,6.8,1.4,6.8,0,0,0,.2,0,.3s0,.2,0,.3v.4c-.1.2-.2.3-.3.3s-.2,0-.4,0h-1c-.2,0-.3,0-.4-.1s-.2-.2-.2-.4l-1.3-7.1h-1.9l-1.5,7c0,.2-.1.4-.2.5,0,.1-.3.2-.5.2h-1.2c-.3,0-.4,0-.5-.2,0-.1,0-.3,0-.6l3.7-17.1c0-.2.1-.3.2-.4,0,0,.2-.2.4-.2ZM222.3,38.7h-1.2l-1.5,7h1.7c.5,0,1,0,1.3-.3.4-.2.7-.5,1-.9.3-.4.5-1,.6-1.6l.2-.7c0-.2,0-.5,0-.7,0-.2,0-.4,0-.6,0-.8-.2-1.3-.6-1.7-.4-.3-1-.5-1.7-.5Z"/>
        <path class="st8" d="M231.5,36.8h1.3c.2,0,.3,0,.4.2s0,.3,0,.5l-3.7,17.3c0,.2-.2.4-.3.5-.1.1-.3.2-.6.2h-1.1c-.2,0-.4,0-.5-.2-.1-.1-.1-.3,0-.5l3.7-17.4c0-.2.1-.3.3-.4.1,0,.3-.1.5-.1Z"/>
        <path class="st8" d="M241.2,36.5c.7,0,1.4,0,1.9.2.5.2,1,.4,1.3.7s.6.7.8,1.3.3,1.1.3,1.8,0,1-.1,1.6c0,.6-.2,1.2-.3,1.9l-.9,4.3c-.2,1.1-.5,2.1-.8,2.9-.3.8-.6,1.5-.9,2.1-.3.6-.7,1-1.1,1.3-.4.3-.9.6-1.5.7-.6.2-1.2.2-1.9.2s-1.3,0-1.8-.2-.9-.4-1.3-.7c-.3-.3-.6-.7-.7-1.2-.2-.5-.2-1.1-.2-1.8s0-1.1,0-1.6c0-.6.2-1.2.4-1.9l.9-4.2c.2-1.1.5-2,.7-2.9.3-.8.6-1.5.9-2.1s.7-1.1,1.1-1.4c.4-.4.9-.6,1.5-.8.5-.2,1.2-.3,1.9-.3ZM240.9,38.5c-.3,0-.6,0-.9.1s-.5.3-.7.5c-.2.2-.4.6-.6,1-.2.4-.4,1-.6,1.6-.2.6-.4,1.4-.6,2.4l-.9,4.3c-.2.7-.3,1.3-.3,1.8,0,.5,0,1,0,1.4s0,.7.1,1c0,.3.2.5.4.7.2.2.4.3.6.4s.5.1.9.1.8,0,1.1-.2c.3-.2.6-.4.9-.8.3-.4.5-.9.8-1.7.2-.7.5-1.7.7-2.8l.9-4.3c.2-.7.3-1.4.3-1.9,0-.6.1-1,.1-1.4s0-.8-.1-1c0-.3-.2-.5-.4-.6-.2-.2-.4-.3-.6-.3-.3,0-.5,0-.9,0Z"/>
        <path class="st8" d="M257.9,36.8c1.3,0,2.2.3,2.9,1,.7.7,1.1,1.6,1.1,2.8s-.1,1.6-.3,2.3c-.2.7-.6,1.3-1,1.8-.5.5-1.1.9-1.8,1.1h0c.6.3,1,.7,1.4,1.2s.5,1.2.5,2.1-.2,2.3-.6,3.3c-.4.9-1.1,1.7-1.9,2.2-.9.5-2,.8-3.3.8h-3.1c-.5,0-.8,0-1-.2-.2-.2-.3-.4-.3-.8s0-.2,0-.3c0-.1,0-.2,0-.4l3.4-16c0-.2.1-.3.2-.5s.2-.2.4-.3c.2,0,.3,0,.5,0,.2,0,.4,0,.5,0,.2,0,.4,0,.5,0h2ZM255.9,46.7h-1.6l-1.4,6.6h2c.8,0,1.4-.2,1.9-.6.5-.4.8-.9,1-1.6.2-.7.3-1.4.3-2.1s-.2-1.4-.6-1.7c-.4-.4-1-.6-1.7-.6ZM257.5,38.8h-1.5l-1.2,6h1.7c.7,0,1.3-.2,1.8-.5.5-.3.8-.8,1-1.4.2-.6.3-1.2.3-1.9s-.2-1.3-.6-1.6c-.4-.3-.9-.5-1.5-.5Z"/>
        <path class="st8" d="M272,36.8c.2,0,.4,0,.5.2,0,.1.1.2.1.4,0,1.8,0,3.6,0,5.4,0,1.8,0,3.6-.2,5.4,0,1.8-.1,3.6-.2,5.4v.4c0,.1,0,.2,0,.3l-.2.7c0,.2-.1.4-.2.4-.1,0-.2.1-.4.1h-1.1c-.2,0-.3,0-.4-.1,0,0-.1-.2-.1-.5l.2-5.7h-3.6l-2.3,5.7c0,.2-.2.3-.3.4s-.2.1-.5.1h-1.1c-.2,0-.4,0-.4-.1,0,0,0-.2,0-.4v-.6c.1,0,.2-.2.2-.2,0,0,0-.1,0-.2,1.1-2.8,2.2-5.6,3.4-8.3s2.2-5.4,3.4-8.1c0-.2.2-.4.3-.5.1,0,.3-.1.5-.1h2.5ZM267.1,46.9h3c0-1.2,0-2.5.2-3.8,0-1.3.1-2.6.2-3.8h-.5c-.5,1.2-.9,2.5-1.4,3.8-.5,1.3-1,2.6-1.5,3.8Z"/>
        <path class="st8" d="M278.9,36.8h1.3c.2,0,.3,0,.4.2s0,.3,0,.5l-3.7,17.3c0,.2-.2.4-.3.5-.1.1-.3.2-.6.2h-1.1c-.2,0-.4,0-.5-.2-.1-.1-.1-.3,0-.5l3.7-17.4c0-.2.1-.3.3-.4.1,0,.3-.1.5-.1Z"/>
        <path class="st8" d="M289.9,36.8c.2,0,.4,0,.5.2,0,.1.1.2.1.4,0,1.8,0,3.6,0,5.4,0,1.8,0,3.6-.2,5.4,0,1.8-.1,3.6-.2,5.4v.4c0,.1,0,.2,0,.3l-.2.7c0,.2-.1.4-.2.4-.1,0-.2.1-.4.1h-1.1c-.2,0-.3,0-.4-.1,0,0-.1-.2-.1-.5l.2-5.7h-3.6l-2.3,5.7c0,.2-.2.3-.3.4s-.2.1-.5.1h-1.1c-.2,0-.4,0-.4-.1,0,0,0-.2,0-.4v-.6c.1,0,.2-.2.2-.2,0,0,0-.1,0-.2,1.1-2.8,2.2-5.6,3.4-8.3s2.2-5.4,3.4-8.1c0-.2.2-.4.3-.5.1,0,.3-.1.5-.1h2.5ZM285,46.9h3c0-1.2,0-2.5.2-3.8,0-1.3.1-2.6.2-3.8h-.5c-.5,1.2-.9,2.5-1.4,3.8-.5,1.3-1,2.6-1.5,3.8Z"/>
        <path class="st8" d="M296.8,36.8h2.2c.2,0,.4,0,.4,0,0,0,.1.2.1.4,0,.4,0,.9.2,1.6,0,.7.1,1.5.2,2.4,0,.9.2,1.8.3,2.8,0,1,.2,1.9.2,2.9,0,.9.1,1.8.2,2.6,0,.8,0,1.4.1,1.9h.2c0-.5.2-1.1.2-1.7s.2-1.2.3-1.9c.1-.6.2-1.2.3-1.8l1.8-8.6c0-.2.1-.4.2-.5.1,0,.2-.1.4-.1h1.1c.2,0,.4,0,.4.2s0,.2,0,.4l-3.7,17.4c0,.2-.1.4-.2.5s-.3.2-.5.2h-1.7c-.2,0-.4,0-.5-.2,0-.1-.1-.3-.2-.5,0-.4,0-.9-.2-1.6,0-.7-.1-1.5-.2-2.3s-.2-1.8-.2-2.8c0-1-.2-2-.2-2.9,0-1-.2-1.9-.2-2.8,0-.9-.2-1.8-.2-2.5h-.1c0,.3,0,.7-.2,1.3,0,.6-.2,1.2-.3,1.9-.1.7-.3,1.5-.5,2.4l-2,9.5c0,.2,0,.3-.2.4,0,.1-.2.2-.5.2h-1.1c-.2,0-.3,0-.4-.1,0,0-.1-.3,0-.5l3.7-17.3c0-.2.1-.4.2-.5,0-.1.3-.2.5-.2Z"/>
        <path class="st8" d="M313.7,36.5c.7,0,1.4,0,1.9.2.5.2,1,.4,1.3.7s.6.7.8,1.3.3,1.1.3,1.8,0,1-.1,1.6c0,.6-.2,1.2-.3,1.9l-.9,4.3c-.2,1.1-.5,2.1-.8,2.9-.3.8-.6,1.5-.9,2.1-.3.6-.7,1-1.1,1.3-.4.3-.9.6-1.5.7-.6.2-1.2.2-1.9.2s-1.3,0-1.8-.2-.9-.4-1.3-.7c-.3-.3-.6-.7-.7-1.2-.2-.5-.2-1.1-.2-1.8s0-1.1,0-1.6c0-.6.2-1.2.4-1.9l.9-4.2c.2-1.1.5-2,.7-2.9.3-.8.6-1.5.9-2.1s.7-1.1,1.1-1.4c.4-.4.9-.6,1.5-.8.5-.2,1.2-.3,1.9-.3ZM313.4,38.5c-.3,0-.6,0-.9.1s-.5.3-.7.5c-.2.2-.4.6-.6,1-.2.4-.4,1-.6,1.6-.2.6-.4,1.4-.6,2.4l-.9,4.3c-.2.7-.3,1.3-.3,1.8,0,.5,0,1,0,1.4s0,.7.1,1c0,.3.2.5.4.7.2.2.4.3.6.4s.5.1.9.1.8,0,1.1-.2c.3-.2.6-.4.9-.8.3-.4.5-.9.8-1.7.2-.7.5-1.7.7-2.8l.9-4.3c.2-.7.3-1.4.3-1.9,0-.6.1-1,.1-1.4s0-.8-.1-1c0-.3-.2-.5-.4-.6-.2-.2-.4-.3-.6-.3-.3,0-.5,0-.9,0Z"/>
      </g>
      <g>
        <path class="st8" d="M138.8,62.4c.2,0,.5,0,.8,0,.3,0,.6,0,.9,0h1.8c1,0,1.8.2,2.5.5.7.3,1.2.8,1.5,1.5.4.7.5,1.5.5,2.6s0,.8,0,1.3c0,.5-.1.9-.3,1.4l-.9,4.4c-.3,1.4-.7,2.5-1.1,3.4-.4.9-.9,1.6-1.5,2.1-.6.5-1.3.9-2,1.1-.8.2-1.6.3-2.6.3h-2.3c-.5,0-.8,0-1.1-.2-.3-.1-.4-.4-.4-.8s0-.2,0-.3c0-.1,0-.2,0-.4l3.5-16.2c0-.2.1-.4.2-.5,0-.1.2-.2.3-.2ZM141.9,64.3h-1.5l-3.1,14.6h1.4c.8,0,1.4-.1,2-.4.6-.2,1.1-.7,1.5-1.3.4-.6.7-1.6,1-2.8l1.1-5.2c0-.4.2-.8.2-1.2,0-.4,0-.7,0-1,0-.9-.2-1.6-.6-2-.4-.5-1.1-.7-2-.7Z"/>
        <path class="st8" d="M151.6,62.5c.1,0,.3,0,.5,0,.2,0,.4,0,.6,0,.2,0,.5,0,.7,0h5.2c.2,0,.4,0,.4.1,0,0,.1.2,0,.4l-.2,1c0,.2-.1.3-.2.4s-.3.1-.5.1h-5l-1.2,5.8h4.2c.2,0,.4,0,.5.1s0,.2,0,.4l-.2,1c0,.2-.1.3-.2.4,0,0-.3.1-.5.1h-4.3l-1.4,6.6h5.6c.2,0,.3,0,.4.1s0,.2,0,.4l-.2.9c0,.2-.2.4-.3.5-.1,0-.3.1-.4.1h-6.3c-.6,0-1-.1-1.3-.3-.2-.2-.3-.7-.1-1.5l3.4-16c0-.2.1-.3.2-.4,0-.1.2-.2.3-.2Z"/>
        <path class="st8" d="M168.5,62.3h5.2c.2,0,.3,0,.4.1,0,0,0,.2,0,.5l-.2.9c0,.2,0,.3-.2.4-.1,0-.3.1-.5.1h-4.9l-1.3,6.1h4.3c.2,0,.4,0,.4.1,0,0,0,.2,0,.4l-.2,1c0,.2-.1.3-.2.4s-.3.1-.5.1h-4.3l-1.6,7.7c0,.2,0,.4-.2.5,0,.1-.3.2-.5.2h-1.3c-.2,0-.3,0-.4-.1,0,0,0-.2,0-.5l3.7-17.2c0-.3.2-.5.5-.6.2,0,.3,0,.5,0,.2,0,.4,0,.6,0,.2,0,.4,0,.6,0Z"/>
        <path class="st8" d="M176.9,62.3h1.3c.2,0,.3,0,.4.2s0,.3,0,.5l-3.7,17.3c0,.2-.2.4-.3.5-.1.1-.3.2-.6.2h-1.1c-.2,0-.4,0-.5-.2-.1-.1-.1-.3,0-.5l3.7-17.4c0-.2.1-.3.3-.4.1,0,.3-.1.5-.1Z"/>
        <path class="st8" d="M183,62.3h2.2c.2,0,.4,0,.4,0,0,0,.1.2.1.4,0,.4,0,.9.2,1.6,0,.7.1,1.5.2,2.4,0,.9.2,1.8.3,2.8,0,1,.2,1.9.2,2.9,0,.9.1,1.8.2,2.6s0,1.4.1,1.9h.2c0-.5.2-1.1.2-1.7s.2-1.2.3-1.9.2-1.2.3-1.8l1.8-8.6c0-.2.1-.4.2-.5.1,0,.2-.1.4-.1h1.1c.2,0,.4,0,.4.2,0,.1,0,.2,0,.4l-3.7,17.4c0,.2-.1.4-.2.5-.1.1-.3.2-.5.2h-1.7c-.2,0-.4,0-.5-.2,0-.1-.1-.3-.2-.5,0-.4,0-.9-.2-1.6,0-.7-.1-1.5-.2-2.3,0-.9-.2-1.8-.2-2.8,0-1-.2-2-.2-2.9,0-1-.2-1.9-.2-2.8,0-.9-.2-1.8-.2-2.5h-.1c0,.3,0,.7-.2,1.3,0,.6-.2,1.2-.3,1.9-.1.7-.3,1.5-.5,2.4l-2,9.5c0,.2,0,.3-.2.4,0,.1-.2.2-.5.2h-1.1c-.2,0-.3,0-.4-.1,0,0-.1-.3,0-.5l3.7-17.3c0-.2.1-.4.2-.5,0-.1.3-.2.5-.2Z"/>
        <path class="st8" d="M201.3,62.3c.2,0,.4,0,.5.2,0,.1.1.2.1.4,0,1.8,0,3.6,0,5.4,0,1.8,0,3.6-.2,5.4,0,1.8-.1,3.6-.2,5.4v.4c0,.1,0,.2,0,.3l-.2.7c0,.2-.1.4-.2.4-.1,0-.2.1-.4.1h-1.1c-.2,0-.3,0-.4-.1,0,0-.1-.2-.1-.5l.2-5.7h-3.6l-2.3,5.7c0,.2-.2.3-.3.4s-.2.1-.5.1h-1.1c-.2,0-.4,0-.4-.1,0,0,0-.2,0-.4v-.6c.1,0,.2-.2.2-.2,0,0,0-.1,0-.2,1.1-2.8,2.2-5.6,3.4-8.3,1.1-2.7,2.2-5.4,3.4-8.1,0-.2.2-.4.3-.5.1,0,.3-.1.5-.1h2.5ZM196.4,72.4h3c0-1.2,0-2.5.2-3.8,0-1.3.1-2.6.2-3.8h-.5c-.5,1.2-.9,2.5-1.4,3.8-.5,1.3-1,2.6-1.5,3.8Z"/>
        <path class="st8" d="M208.2,62.3h2.2c.2,0,.4,0,.4,0,0,0,.1.2.1.4,0,.4,0,.9.2,1.6,0,.7.1,1.5.2,2.4,0,.9.2,1.8.3,2.8,0,1,.2,1.9.2,2.9,0,.9.1,1.8.2,2.6s0,1.4.1,1.9h.2c0-.5.2-1.1.2-1.7s.2-1.2.3-1.9.2-1.2.3-1.8l1.8-8.6c0-.2.1-.4.2-.5.1,0,.2-.1.4-.1h1.1c.2,0,.4,0,.4.2,0,.1,0,.2,0,.4l-3.7,17.4c0,.2-.1.4-.2.5-.1.1-.3.2-.5.2h-1.7c-.2,0-.4,0-.5-.2,0-.1-.1-.3-.2-.5,0-.4,0-.9-.2-1.6,0-.7-.1-1.5-.2-2.3,0-.9-.2-1.8-.2-2.8,0-1-.2-2-.2-2.9,0-1-.2-1.9-.2-2.8,0-.9-.2-1.8-.2-2.5h-.1c0,.3,0,.7-.2,1.3,0,.6-.2,1.2-.3,1.9-.1.7-.3,1.5-.5,2.4l-2,9.5c0,.2,0,.3-.2.4,0,.1-.2.2-.5.2h-1.1c-.2,0-.3,0-.4-.1,0,0-.1-.3,0-.5l3.7-17.3c0-.2.1-.4.2-.5,0-.1.3-.2.5-.2Z"/>
        <path class="st8" d="M225.1,62c.6,0,1.1,0,1.5.2.4.1.8.2,1,.4.3.1.5.3.6.4.2.2.3.3.3.5s0,.2,0,.3c0,0,0,.2-.1.3l-.3.5c0,.1-.2.2-.3.3,0,0-.2.1-.3.1s-.3,0-.4-.1c-.3-.2-.6-.4-1-.5-.4-.1-.7-.2-1.1-.2s-.8,0-1.2.2c-.3.2-.7.4-.9.9-.3.4-.5,1-.8,1.8-.3.8-.5,1.8-.8,3.1l-.7,3.4c-.1.7-.2,1.3-.3,1.9,0,.6-.1,1-.1,1.5,0,.9.2,1.5.5,1.9s.9.5,1.6.5.9,0,1.3-.2c.4-.2.8-.4,1.2-.6.2-.1.3-.2.4-.2.2,0,.3.1.5.4l.2.5c0,.1.1.3.1.4s0,.2,0,.3c0,.1-.2.2-.3.3-.5.4-1,.7-1.7.9-.6.2-1.4.4-2.3.4s-1.1,0-1.6-.2c-.5-.1-.9-.4-1.2-.7s-.6-.8-.8-1.3c-.2-.5-.3-1.2-.3-2s0-1,0-1.6c0-.6.2-1.2.3-1.9l.7-3.5c.4-2,.9-3.5,1.4-4.7.5-1.2,1.2-2,1.9-2.5.8-.5,1.7-.8,2.9-.8ZM222.9,80.8l-1.1,1.4c.8,0,1.4.3,1.7.7.3.3.5.8.5,1.2s-.2,1.1-.5,1.5c-.3.4-.7.7-1.3.8s-1.1.3-1.8.3-.8,0-1,0c-.2,0-.4,0-.5,0-.1,0-.2,0-.2-.2,0,0,0-.2,0-.3l.2-.7c0-.1,0-.2.1-.3,0,0,.2,0,.3,0,.1,0,.3,0,.5,0s.4,0,.7,0c.4,0,.8,0,1-.2.3-.1.4-.3.4-.6s-.2-.4-.5-.6c-.3-.2-.8-.2-1.6-.2s-.2,0-.3,0c0,0,0-.2,0-.3,0,0,0-.2,0-.2s0-.1,0-.2c0,0,0-.1,0-.2s0-.1.1-.2l1.3-1.9,1.6.4Z"/>
        <path class="st8" d="M237.7,62.3c.2,0,.4,0,.5.2s.1.2.1.4c0,1.8,0,3.6,0,5.4,0,1.8,0,3.6-.2,5.4,0,1.8-.1,3.6-.2,5.4v.4c0,.1,0,.2,0,.3l-.2.7c0,.2-.1.4-.2.4s-.2.1-.4.1h-1.1c-.2,0-.3,0-.4-.1,0,0-.1-.2-.1-.5l.2-5.7h-3.6l-2.3,5.7c0,.2-.2.3-.3.4,0,0-.2.1-.5.1h-1.1c-.2,0-.4,0-.4-.1,0,0,0-.2,0-.4v-.6c.1,0,.2-.2.2-.2,0,0,0-.1,0-.2,1.1-2.8,2.2-5.6,3.4-8.3s2.2-5.4,3.4-8.1c0-.2.2-.4.3-.5.1,0,.3-.1.5-.1h2.5ZM232.9,72.4h3c0-1.2,0-2.5.2-3.8s.1-2.6.2-3.8h-.5c-.5,1.2-.9,2.5-1.4,3.8-.5,1.3-1,2.6-1.5,3.8Z"/>
        <path class="st8" d="M246.8,62c.8,0,1.6.1,2.1.3.6.2,1,.5,1.4.8.1.1.2.3.2.4,0,.2,0,.3-.2.5l-.3.6c-.2.2-.3.4-.5.4s-.3,0-.5-.1c-.4-.2-.7-.4-1.1-.6-.4-.2-.8-.2-1.3-.2-.8,0-1.4.3-1.8.8-.4.5-.6,1.2-.6,1.9s0,.9.3,1.3c.2.4.4.7.7,1.1.4.4.7.7.9,1,.2.3.5.6.9,1,.5.6,1,1.3,1.3,1.9s.5,1.4.5,2.2-.2,2.1-.6,3-1,1.5-1.7,2c-.8.5-1.7.7-2.8.7s-1.2,0-1.7-.2c-.5-.1-.9-.3-1.3-.6-.4-.2-.7-.5-.9-.7-.2-.2-.2-.3-.2-.5,0-.2,0-.4.2-.5l.3-.5c.2-.2.3-.4.5-.4s.3,0,.5.2c.5.4.9.7,1.3.9.4.2.9.3,1.5.3s1-.1,1.4-.4c.4-.3.7-.7.8-1.1.2-.5.3-.9.3-1.4s0-.9-.3-1.4c-.2-.5-.4-.9-.7-1.3-.3-.3-.5-.7-.8-1-.3-.3-.6-.7-1-1.2-.5-.5-.9-1.1-1.2-1.8-.4-.6-.5-1.4-.5-2.2s.2-1.9.6-2.7c.4-.8.9-1.4,1.6-1.9.7-.5,1.6-.7,2.6-.7Z"/>
        <path class="st8" d="M259.3,62.4c.2,0,.5,0,.7,0,.2,0,.5,0,.9,0h1.8c.8,0,1.5.1,2,.4.6.3,1.1.7,1.4,1.2.3.5.5,1.3.5,2.2s0,.6,0,1c0,.3-.1.7-.2,1.1l-.2,1c-.3,1.3-.7,2.4-1.3,3.1-.5.7-1.2,1.2-1.9,1.5-.7.3-1.5.4-2.4.4h-1.9l-1.4,6.3c0,.2-.1.4-.2.5-.1,0-.3.1-.5.1h-1.2c-.2,0-.4,0-.4-.2,0-.1-.1-.2,0-.4l3.7-17.2c0-.4.3-.6.6-.6ZM262.4,64.3h-1.5l-1.6,7.7h1.4c.4,0,.7,0,1-.1.3,0,.6-.2.9-.5.3-.2.5-.6.8-1s.4-1,.6-1.7l.2-.8c0-.3.1-.6.2-.8,0-.2,0-.5,0-.7,0-.6-.1-1.1-.4-1.5s-.8-.5-1.4-.5Z"/>
        <path class="st8" d="M271.1,62.3h1.3c.2,0,.3,0,.4.1,0,0,0,.2,0,.5l-2.8,13.2c0,.2,0,.4,0,.6s0,.4,0,.6c0,.6.2,1.1.5,1.4.3.3.9.4,1.5.4s1.1-.1,1.5-.4c.4-.2.7-.6.9-1,.2-.4.4-.9.5-1.5l2.8-13.4c0-.2.1-.4.2-.5.1-.1.3-.2.5-.2h1.1c.3,0,.4,0,.5.2,0,.1,0,.3,0,.5l-2.8,13.3c-.2,1-.5,1.8-.9,2.5-.4.7-1,1.3-1.7,1.7-.7.4-1.7.6-3,.6s-1.8-.1-2.4-.4c-.6-.3-1.1-.7-1.4-1.2-.3-.5-.4-1.2-.4-1.9s0-.6,0-.9c0-.3,0-.6.2-1l2.8-12.8c0-.2.1-.3.2-.5,0-.1.3-.2.5-.2ZM277.7,57.3h1.7c.2,0,.4,0,.4.2,0,.2,0,.3-.2.5l-3,2.8c-.1.1-.3.2-.4.3-.1,0-.3,0-.5,0h-1.4c-.3,0-.4,0-.4-.2,0-.1,0-.3.2-.4l2.8-2.9c.1-.1.2-.2.4-.3.1,0,.3,0,.5,0Z"/>
        <path class="st8" d="M287.6,62.3c1.3,0,2.2.3,2.9,1,.7.7,1.1,1.6,1.1,2.8s-.1,1.6-.3,2.3c-.2.7-.6,1.3-1,1.8-.5.5-1.1.9-1.8,1.1h0c.6.3,1,.7,1.4,1.2s.5,1.2.5,2.1-.2,2.3-.6,3.3c-.4.9-1.1,1.7-1.9,2.2-.9.5-2,.8-3.3.8h-3.1c-.5,0-.8,0-1-.2-.2-.2-.3-.4-.3-.8s0-.2,0-.3c0-.1,0-.2,0-.4l3.4-16c0-.2.1-.3.2-.5s.2-.2.4-.3c.2,0,.3,0,.5,0,.2,0,.4,0,.5,0,.2,0,.4,0,.5,0h2ZM285.5,72.3h-1.6l-1.4,6.6h2c.8,0,1.4-.2,1.9-.6.5-.4.8-.9,1-1.6.2-.7.3-1.4.3-2.1s-.2-1.4-.6-1.7c-.4-.4-1-.6-1.7-.6ZM287.2,64.3h-1.5l-1.2,6h1.7c.7,0,1.3-.2,1.8-.5.5-.3.8-.8,1-1.4.2-.6.3-1.2.3-1.9s-.2-1.3-.6-1.6c-.4-.3-.9-.5-1.5-.5Z"/>
        <path class="st8" d="M296.4,62.3h1.2c.2,0,.3,0,.4.2,0,.1,0,.3,0,.5l-3.4,15.9h5.1c.2,0,.4,0,.5.1.1,0,.1.2,0,.5l-.2.8c0,.2-.1.4-.3.5-.1,0-.3.1-.5.1h-5.7c-.4,0-.8,0-1-.1s-.4-.2-.5-.5c0-.3,0-.6,0-1.2l3.4-16.2c0-.3.2-.4.3-.5.1,0,.3-.1.5-.1Z"/>
        <path class="st8" d="M306.4,62.3h1.3c.2,0,.3,0,.4.2s0,.3,0,.5l-3.7,17.3c0,.2-.2.4-.3.5-.1.1-.3.2-.6.2h-1.1c-.2,0-.4,0-.5-.2-.1-.1-.1-.3,0-.5l3.7-17.4c0-.2.1-.3.3-.4.1,0,.3-.1.5-.1Z"/>
        <path class="st8" d="M316,62c.6,0,1.1,0,1.5.2.4.1.8.2,1,.4.3.1.5.3.6.4.2.2.3.3.3.5s0,.2,0,.3c0,0,0,.2-.1.3l-.3.5c0,.1-.2.2-.3.3,0,0-.2.1-.3.1-.1,0-.3,0-.4-.1-.3-.2-.6-.4-1-.5-.4-.1-.7-.2-1.1-.2s-.8,0-1.2.2c-.3.2-.7.4-.9.9-.3.4-.5,1-.8,1.8-.3.8-.5,1.8-.8,3.1l-.7,3.4c-.1.7-.2,1.3-.3,1.9,0,.6-.1,1-.1,1.5,0,.9.2,1.5.5,1.9s.9.5,1.6.5.9,0,1.3-.2c.4-.2.8-.4,1.2-.6.2-.1.3-.2.4-.2.2,0,.3.1.5.4l.2.5c0,.1.1.3.1.4s0,.2,0,.3c0,.1-.2.2-.3.3-.5.4-1,.7-1.7.9s-1.4.4-2.3.4-1.1,0-1.6-.2c-.5-.1-.9-.4-1.2-.7s-.6-.8-.8-1.3-.3-1.2-.3-2,0-1,0-1.6.2-1.2.3-1.9l.7-3.5c.4-2,.9-3.5,1.4-4.7.5-1.2,1.2-2,1.9-2.5s1.7-.8,2.9-.8Z"/>
        <path class="st8" d="M328.7,62.3c.2,0,.4,0,.5.2s.1.2.1.4c0,1.8,0,3.6,0,5.4,0,1.8,0,3.6-.2,5.4,0,1.8-.1,3.6-.2,5.4v.4c0,.1,0,.2,0,.3l-.2.7c0,.2-.1.4-.2.4s-.2.1-.4.1h-1.1c-.2,0-.3,0-.4-.1,0,0-.1-.2-.1-.5l.2-5.7h-3.6l-2.3,5.7c0,.2-.2.3-.3.4,0,0-.2.1-.5.1h-1.1c-.2,0-.4,0-.4-.1,0,0,0-.2,0-.4v-.6c.1,0,.2-.2.2-.2,0,0,0-.1,0-.2,1.1-2.8,2.2-5.6,3.4-8.3s2.2-5.4,3.4-8.1c0-.2.2-.4.3-.5.1,0,.3-.1.5-.1h2.5ZM323.8,72.4h3c0-1.2,0-2.5.2-3.8s.1-2.6.2-3.8h-.5c-.5,1.2-.9,2.5-1.4,3.8-.5,1.3-1,2.6-1.5,3.8Z"/>
        <path class="st8" d="M337.7,62c.8,0,1.6.1,2.1.3.6.2,1,.5,1.4.8.1.1.2.3.2.4,0,.2,0,.3-.2.5l-.3.6c-.2.2-.3.4-.5.4s-.3,0-.5-.1c-.4-.2-.7-.4-1.1-.6-.4-.2-.8-.2-1.3-.2-.8,0-1.4.3-1.8.8s-.6,1.2-.6,1.9,0,.9.3,1.3.4.7.7,1.1c.4.4.7.7.9,1,.2.3.5.6.9,1,.5.6,1,1.3,1.3,1.9.3.6.5,1.4.5,2.2s-.2,2.1-.6,3c-.4.9-1,1.5-1.7,2s-1.7.7-2.8.7-1.2,0-1.7-.2c-.5-.1-.9-.3-1.3-.6-.4-.2-.7-.5-.9-.7-.2-.2-.2-.3-.2-.5,0-.2,0-.4.2-.5l.3-.5c.2-.2.3-.4.5-.4s.3,0,.5.2c.5.4.9.7,1.3.9.4.2.9.3,1.5.3s1-.1,1.4-.4c.4-.3.7-.7.8-1.1.2-.5.3-.9.3-1.4s0-.9-.3-1.4c-.2-.5-.4-.9-.7-1.3-.3-.3-.5-.7-.8-1-.3-.3-.6-.7-1-1.2-.5-.5-.9-1.1-1.2-1.8s-.5-1.4-.5-2.2.2-1.9.6-2.7.9-1.4,1.6-1.9c.7-.5,1.6-.7,2.6-.7Z"/>
      </g>
    </g>
    <g id="tema">
      <g>
        <path class="st8" d="M17.4,90.6c1.3,0,2.2.3,2.8.9.6.6.9,1.5.9,2.6s-.1,1.5-.4,2.1c-.3.6-.8,1-1.5,1.3l2.5,5.6h-1.6l-2.2-5.2h-1.2v5.2h-1.5v-12.4h2.2ZM17.4,91.9h-.7v4.7h.9c.7,0,1.2-.2,1.5-.6.4-.4.5-1,.5-1.8s-.2-1.4-.5-1.7c-.4-.4-.9-.5-1.7-.5Z"/>
        <path class="st8" d="M26.5,93.5c.6,0,1.2.2,1.6.5.4.4.7.9.9,1.5.2.6.3,1.3.3,2.1v1h-4.4c0,2.3.7,3.4,2.1,3.4s.7,0,1-.1c.3,0,.7-.3,1-.5v1.3c-.7.4-1.4.6-2.2.6s-1.4-.2-1.9-.6c-.5-.4-.8-1-1.1-1.7-.2-.7-.3-1.5-.3-2.4,0-1.6.3-2.8.8-3.6.5-.8,1.3-1.3,2.2-1.3ZM26.5,94.7c-.5,0-.8.2-1.1.7-.3.5-.4,1.2-.5,2.1h3.1c0-.5,0-1-.2-1.4-.1-.4-.3-.8-.5-1-.2-.3-.5-.4-.9-.4Z"/>
        <path class="st8" d="M35.1,94.9h-1.5v8.2h-1.4v-8.2h-1.1v-.7l1.1-.5v-.5c0-1.1.1-1.9.4-2.5s.9-.9,1.7-.9.5,0,.7,0c.2,0,.4.1.7.2l-.4,1.1c-.2,0-.3,0-.4-.1-.1,0-.3,0-.4,0-.3,0-.6.2-.7.5-.1.3-.2.8-.2,1.6v.6h1.5v1.2Z"/>
        <path class="st8" d="M43.2,98.4c0,1-.1,1.8-.3,2.5-.2.7-.6,1.3-1,1.7-.5.4-1.1.6-1.8.6s-1.3-.2-1.7-.6c-.5-.4-.8-1-1-1.7-.2-.7-.3-1.6-.3-2.6,0-1.5.3-2.7.8-3.6s1.3-1.3,2.4-1.3,1.8.4,2.3,1.2c.6.8.8,2,.8,3.6ZM38.4,98.4c0,1.2.1,2.1.4,2.7.3.6.7.9,1.3.9,1.1,0,1.7-1.2,1.7-3.6s-.6-3.6-1.7-3.6-1,.3-1.3.9c-.3.6-.4,1.5-.4,2.7Z"/>
        <path class="st8" d="M49.2,93.5c.3,0,.5,0,.8.1l-.2,1.5c-.2,0-.4-.1-.7-.1s-.6.1-.9.4c-.3.3-.5.7-.6,1.1-.1.5-.2,1-.2,1.6v4.9h-1.4v-9.4h1.1l.2,1.6h0c.2-.5.4-1,.8-1.3.3-.3.7-.5,1.1-.5Z"/>
        <path class="st8" d="M59.6,93.5c1.5,0,2.2,1.1,2.2,3.3v6.3h-1.4v-6c0-.8,0-1.4-.3-1.7s-.5-.5-.9-.5c-.6,0-1,.3-1.2.8-.2.5-.3,1.3-.3,2.3v5.2h-1.4v-6.1c0-.8,0-1.4-.3-1.7-.2-.3-.5-.5-.9-.5s-.7.1-1,.4c-.2.3-.4.7-.5,1.2,0,.5-.1,1.1-.1,1.8v4.9h-1.4v-9.4h1.1l.2,1.3h0c.4-1,1-1.4,2-1.4s1,.1,1.3.4.5.6.6,1.1h.1c.2-.5.5-.9.8-1.1.3-.2.7-.4,1.3-.4Z"/>
        <path class="st8" d="M67.5,93.5c.9,0,1.5.3,1.9.8.4.6.6,1.4.6,2.4v6.3h-1.1l-.2-1.3h0c-.5,1-1.2,1.5-2.1,1.5s-.9-.1-1.2-.4c-.3-.3-.5-.6-.7-1-.1-.4-.2-.9-.2-1.4,0-.9.3-1.6.8-2.2.5-.5,1.3-.8,2.3-.8h1.1v-.7c0-.7,0-1.2-.3-1.6-.2-.3-.5-.5-1-.5s-1.1.2-1.8.6l-.5-1.1c.7-.5,1.5-.7,2.4-.7ZM68.5,98.4h-.8c-1.3.1-1.9.8-1.9,2s0,1,.3,1.3.5.4.8.4.9-.2,1.2-.7c.3-.5.4-1.1.4-2v-.9Z"/>
        <path class="st8" d="M80,103.1h-1.5v-11.1h-2.4v-1.3h6.3v1.3h-2.4v11.1Z"/>
        <path class="st8" d="M87.3,93.5c.3,0,.5,0,.8.1l-.2,1.5c-.2,0-.4-.1-.7-.1s-.6.1-.9.4c-.3.3-.5.7-.6,1.1-.1.5-.2,1-.2,1.6v4.9h-1.4v-9.4h1.1l.2,1.6h0c.2-.5.4-1,.8-1.3.3-.3.7-.5,1.1-.5Z"/>
        <path class="st8" d="M91,90.2c.5,0,.8.3.8,1s-.3,1-.8,1-.5,0-.6-.3c-.1-.2-.2-.4-.2-.7,0-.7.3-1,.8-1ZM91.7,93.7v9.4h-1.4v-9.4h1.4Z"/>
        <path class="st8" d="M96.2,89.8v3.8c0,.2,0,.4,0,.6,0,.2,0,.5,0,.7h0c.5-.9,1.2-1.4,2-1.4s1.6.4,2,1.2c.5.8.7,2,.7,3.6s-.2,2.8-.7,3.6c-.5.8-1.1,1.3-2,1.3s-.8-.1-1.2-.3c-.3-.2-.6-.6-.9-1h0l-.2,1.2h-1.1v-13.2h1.4ZM98,94.8c-.5,0-.8.2-1.1.5-.3.3-.4.7-.5,1.2,0,.5-.1,1.1-.1,1.8v.3c0,2.3.6,3.4,1.8,3.4s.9-.3,1.2-.9c.3-.6.4-1.5.4-2.8s-.1-2.1-.4-2.7c-.3-.6-.7-.9-1.2-.9Z"/>
        <path class="st8" d="M109.4,93.7v9.4h-1.1l-.2-1.3h-.1c-.2.5-.5.8-.8,1.1s-.8.4-1.2.4c-.8,0-1.4-.3-1.8-.9-.3-.6-.5-1.5-.5-2.5v-6.1h1.4v5.8c0,.8,0,1.4.3,1.8.2.4.5.6.9.6.7,0,1.1-.3,1.4-.8.3-.5.4-1.4.4-2.5v-5h1.4Z"/>
        <path class="st8" d="M114.8,102c.1,0,.3,0,.4,0,.1,0,.3,0,.4-.1v1.1c-.2,0-.4.2-.6.2-.2,0-.5,0-.7,0-.6,0-1.1-.2-1.4-.6-.3-.4-.4-1-.4-1.9v-5.9h-.9v-.8l.9-.4.4-2.1h1v2.1h1.6v1.2h-1.6v5.7c0,.5,0,.8.2,1.1.1.2.3.3.7.3Z"/>
        <path class="st8" d="M120.5,93.5c.9,0,1.5.3,1.9.8.4.6.6,1.4.6,2.4v6.3h-1.1l-.2-1.3h0c-.5,1-1.2,1.5-2.1,1.5s-.9-.1-1.2-.4c-.3-.3-.5-.6-.7-1-.1-.4-.2-.9-.2-1.4,0-.9.3-1.6.8-2.2.5-.5,1.3-.8,2.3-.8h1.1v-.7c0-.7,0-1.2-.3-1.6-.2-.3-.5-.5-1-.5s-1.1.2-1.8.6l-.5-1.1c.7-.5,1.5-.7,2.4-.7ZM121.5,98.4h-.8c-1.3.1-1.9.8-1.9,2s0,1,.3,1.3.5.4.8.4.9-.2,1.2-.7c.3-.5.4-1.1.4-2v-.9ZM122.9,89.7v.2c-.1.2-.3.5-.6.9-.3.3-.6.7-.9,1-.3.3-.6.6-.8.8h-.9v-.2c.7-1,1.2-1.8,1.5-2.6h1.7Z"/>
        <path class="st8" d="M129.2,93.5c.3,0,.5,0,.8.1l-.2,1.5c-.2,0-.4-.1-.7-.1s-.6.1-.9.4c-.3.3-.5.7-.6,1.1-.1.5-.2,1-.2,1.6v4.9h-1.4v-9.4h1.1l.2,1.6h0c.2-.5.4-1,.8-1.3.3-.3.7-.5,1.1-.5Z"/>
        <path class="st8" d="M132.9,90.2c.5,0,.8.3.8,1s-.3,1-.8,1-.5,0-.6-.3c-.1-.2-.2-.4-.2-.7,0-.7.3-1,.8-1ZM133.6,93.7v9.4h-1.4v-9.4h1.4Z"/>
        <path class="st8" d="M139.3,93.5c.9,0,1.5.3,1.9.8.4.6.6,1.4.6,2.4v6.3h-1.1l-.2-1.3h0c-.5,1-1.2,1.5-2.1,1.5s-.9-.1-1.2-.4c-.3-.3-.5-.6-.7-1-.1-.4-.2-.9-.2-1.4,0-.9.3-1.6.8-2.2.5-.5,1.3-.8,2.3-.8h1.1v-.7c0-.7,0-1.2-.3-1.6-.2-.3-.5-.5-1-.5s-1.1.2-1.8.6l-.5-1.1c.7-.5,1.5-.7,2.4-.7ZM140.4,98.4h-.8c-1.3.1-1.9.8-1.9,2s0,1,.3,1.3.5.4.8.4.9-.2,1.2-.7c.3-.5.4-1.1.4-2v-.9Z"/>
        <path class="st8" d="M151.6,93.5c.6,0,1.2.2,1.6.5.4.4.7.9.9,1.5.2.6.3,1.3.3,2.1v1h-4.4c0,2.3.7,3.4,2.1,3.4s.7,0,1-.1c.3,0,.7-.3,1-.5v1.3c-.7.4-1.4.6-2.2.6s-1.4-.2-1.9-.6c-.5-.4-.8-1-1.1-1.7-.2-.7-.3-1.5-.3-2.4,0-1.6.3-2.8.8-3.6.5-.8,1.3-1.3,2.2-1.3ZM151.6,94.7c-.5,0-.8.2-1.1.7-.3.5-.4,1.2-.5,2.1h3.1c0-.5,0-1-.2-1.4-.1-.4-.3-.8-.5-1-.2-.3-.5-.4-.9-.4Z"/>
        <path class="st8" d="M162.8,103.1h-1.5v-12.4h4.9v1.3h-3.5v4.5h3.3v1.3h-3.3v5.3Z"/>
        <path class="st8" d="M171.3,93.5c.6,0,1.2.2,1.6.5.4.4.7.9.9,1.5.2.6.3,1.3.3,2.1v1h-4.4c0,2.3.7,3.4,2.1,3.4s.7,0,1-.1c.3,0,.7-.3,1-.5v1.3c-.7.4-1.4.6-2.2.6s-1.4-.2-1.9-.6c-.5-.4-.8-1-1.1-1.7-.2-.7-.3-1.5-.3-2.4,0-1.6.3-2.8.8-3.6.5-.8,1.3-1.3,2.2-1.3ZM171.3,94.7c-.5,0-.8.2-1.1.7-.3.5-.4,1.2-.5,2.1h3.1c0-.5,0-1-.2-1.4-.1-.4-.3-.8-.5-1-.2-.3-.5-.4-.9-.4Z"/>
        <path class="st8" d="M179.2,103.2c-.9,0-1.6-.4-2-1.2-.5-.8-.7-2-.7-3.6s.2-2.8.7-3.6c.5-.8,1.1-1.3,2-1.3s.8.1,1.2.4c.4.2.7.6.9,1h0c0-.5,0-1,0-1.3v-3.8h1.4v13.2h-1.1l-.2-1.2h0c-.3.4-.5.8-.9,1-.3.2-.7.3-1.2.3ZM179.5,102c1.1,0,1.7-1.1,1.7-3.2v-.5c0-1.2-.1-2.1-.4-2.7-.3-.6-.7-.8-1.3-.8s-.9.3-1.2.9c-.3.6-.4,1.5-.4,2.7,0,2.4.5,3.6,1.6,3.6Z"/>
        <path class="st8" d="M188.4,93.5c.6,0,1.2.2,1.6.5.4.4.7.9.9,1.5.2.6.3,1.3.3,2.1v1h-4.4c0,2.3.7,3.4,2.1,3.4s.7,0,1-.1c.3,0,.7-.3,1-.5v1.3c-.7.4-1.4.6-2.2.6s-1.4-.2-1.9-.6c-.5-.4-.8-1-1.1-1.7-.2-.7-.3-1.5-.3-2.4,0-1.6.3-2.8.8-3.6.5-.8,1.3-1.3,2.2-1.3ZM188.4,94.7c-.5,0-.8.2-1.1.7-.3.5-.4,1.2-.5,2.1h3.1c0-.5,0-1-.2-1.4-.1-.4-.3-.8-.5-1-.2-.3-.5-.4-.9-.4Z"/>
        <path class="st8" d="M197.1,93.5c.3,0,.5,0,.8.1l-.2,1.5c-.2,0-.4-.1-.7-.1s-.6.1-.9.4c-.3.3-.5.7-.6,1.1-.1.5-.2,1-.2,1.6v4.9h-1.4v-9.4h1.1l.2,1.6h0c.2-.5.4-1,.8-1.3.3-.3.7-.5,1.1-.5Z"/>
        <path class="st8" d="M202.4,93.5c.9,0,1.5.3,1.9.8.4.6.6,1.4.6,2.4v6.3h-1.1l-.2-1.3h0c-.5,1-1.2,1.5-2.1,1.5s-.9-.1-1.2-.4c-.3-.3-.5-.6-.7-1-.1-.4-.2-.9-.2-1.4,0-.9.3-1.6.8-2.2.5-.5,1.3-.8,2.3-.8h1.1v-.7c0-.7,0-1.2-.3-1.6-.2-.3-.5-.5-1-.5s-1.1.2-1.8.6l-.5-1.1c.7-.5,1.5-.7,2.4-.7ZM203.5,98.4h-.8c-1.3.1-1.9.8-1.9,2s0,1,.3,1.3.5.4.8.4.9-.2,1.2-.7c.3-.5.4-1.1.4-2v-.9Z"/>
        <path class="st8" d="M209.4,103.1h-1.4v-13.2h1.4v13.2Z"/>
        <path class="st8" d="M213.2,90.2c.5,0,.8.3.8,1s-.3,1-.8,1-.5,0-.6-.3c-.1-.2-.2-.4-.2-.7,0-.7.3-1,.8-1ZM213.9,93.7v9.4h-1.4v-9.4h1.4Z"/>
        <path class="st8" d="M221.3,100.5c0,.9-.2,1.5-.7,2-.5.5-1.1.7-2,.7s-.8,0-1.2-.1c-.4,0-.7-.2-.9-.4v-1.5c.3.2.6.4.9.5.4.1.7.2,1.1.2s.7-.1,1-.4c.2-.2.3-.6.3-1s-.1-.7-.3-.9c-.2-.3-.6-.5-1.1-.8-.6-.4-1.1-.7-1.4-1.2-.4-.4-.5-1-.5-1.7s.2-1.3.7-1.8c.5-.4,1.1-.7,1.9-.7s1.5.2,2.1.6l-.5,1.1c-.2-.2-.5-.3-.8-.4s-.5-.1-.8-.1-.7.1-.9.3c-.2.2-.3.5-.3.9s.1.7.3.9c.2.2.6.5,1.1.9.6.4,1,.7,1.4,1.1.4.4.5,1,.5,1.7Z"/>
        <path class="st8" d="M231.3,93.5c1.5,0,2.2,1.1,2.2,3.3v6.3h-1.4v-6c0-.8,0-1.4-.3-1.7s-.5-.5-.9-.5c-.6,0-1,.3-1.2.8-.2.5-.3,1.3-.3,2.3v5.2h-1.4v-6.1c0-.8,0-1.4-.3-1.7-.2-.3-.5-.5-.9-.5s-.7.1-1,.4c-.2.3-.4.7-.5,1.2,0,.5-.1,1.1-.1,1.8v4.9h-1.4v-9.4h1.1l.2,1.3h0c.4-1,1-1.4,2-1.4s1,.1,1.3.4.5.6.6,1.1h.1c.2-.5.5-.9.8-1.1.3-.2.7-.4,1.3-.4Z"/>
        <path class="st8" d="M242.5,98.4c0,1-.1,1.8-.3,2.5-.2.7-.6,1.3-1,1.7-.5.4-1.1.6-1.8.6s-1.3-.2-1.7-.6c-.5-.4-.8-1-1-1.7-.2-.7-.3-1.6-.3-2.6,0-1.5.3-2.7.8-3.6s1.3-1.3,2.4-1.3,1.8.4,2.3,1.2c.6.8.8,2,.8,3.6ZM237.6,98.4c0,1.2.1,2.1.4,2.7.3.6.7.9,1.3.9,1.1,0,1.7-1.2,1.7-3.6s-.6-3.6-1.7-3.6-1,.3-1.3.9c-.3.6-.4,1.5-.4,2.7Z"/>
        <path class="st8" d="M250.9,103.1h-1.5v-12.4h4.9v1.3h-3.5v4.5h3.3v1.3h-3.3v5.3Z"/>
        <path class="st8" d="M257.5,90.2c.5,0,.8.3.8,1s-.3,1-.8,1-.5,0-.6-.3c-.1-.2-.2-.4-.2-.7,0-.7.3-1,.8-1ZM258.2,93.7v9.4h-1.4v-9.4h1.4Z"/>
        <path class="st8" d="M265.5,100.5c0,.9-.2,1.5-.7,2-.5.5-1.1.7-2,.7s-.8,0-1.2-.1c-.4,0-.7-.2-.9-.4v-1.5c.3.2.6.4.9.5.4.1.7.2,1.1.2s.7-.1,1-.4c.2-.2.3-.6.3-1s-.1-.7-.3-.9c-.2-.3-.6-.5-1.1-.8-.6-.4-1.1-.7-1.4-1.2-.4-.4-.5-1-.5-1.7s.2-1.3.7-1.8c.5-.4,1.1-.7,1.9-.7s1.5.2,2.1.6l-.5,1.1c-.2-.2-.5-.3-.8-.4s-.5-.1-.8-.1-.7.1-.9.3c-.2.2-.3.5-.3.9s.1.7.3.9c.2.2.6.5,1.1.9.6.4,1,.7,1.4,1.1.4.4.5,1,.5,1.7Z"/>
        <path class="st8" d="M270.8,103.2c-2.1,0-3.1-1.6-3.1-4.8s.3-2.7.8-3.6,1.3-1.3,2.4-1.3.7,0,1,.1.6.2.8.3l-.4,1.2c-.4-.2-.9-.3-1.3-.3-1.2,0-1.8,1.2-1.8,3.6s.6,3.6,1.8,3.6.5,0,.8-.1.5-.2.8-.3v1.2c-.2.2-.5.3-.8.4-.3,0-.6.1-.9.1Z"/>
        <path class="st8" d="M277.6,93.5c.9,0,1.5.3,1.9.8.4.6.6,1.4.6,2.4v6.3h-1.1l-.2-1.3h0c-.5,1-1.2,1.5-2.1,1.5s-.9-.1-1.2-.4c-.3-.3-.5-.6-.7-1-.1-.4-.2-.9-.2-1.4,0-.9.3-1.6.8-2.2.5-.5,1.3-.8,2.3-.8h1.1v-.7c0-.7,0-1.2-.3-1.6-.2-.3-.5-.5-1-.5s-1.1.2-1.8.6l-.5-1.1c.7-.5,1.5-.7,2.4-.7ZM278.6,98.4h-.8c-1.3.1-1.9.8-1.9,2s0,1,.3,1.3.5.4.8.4.9-.2,1.2-.7c.3-.5.4-1.1.4-2v-.9Z"/>
        <path class="st8" d="M284.5,103.1h-1.4v-13.2h1.4v13.2Z"/>
        <path class="st8" d="M291.9,90.6h2.8c1.1,0,1.9.3,2.5.7.6.5.9,1.2.9,2.2,0,1.6-.6,2.6-1.8,2.9h0c1.4.4,2,1.4,2,3s-.3,1.9-.8,2.6c-.5.7-1.3,1-2.4,1h-3.2v-12.4ZM293.4,95.9h1.3c.7,0,1.1-.2,1.4-.5.3-.4.4-.9.4-1.6,0-1.3-.6-1.9-1.9-1.9h-1.3v4.1ZM293.4,97.2v4.6h1.6c1.2,0,1.8-.8,1.8-2.4s-.2-1.3-.5-1.7-.8-.6-1.5-.6h-1.4Z"/>
        <path class="st8" d="M304.1,93.5c.3,0,.5,0,.8.1l-.2,1.5c-.2,0-.4-.1-.7-.1s-.6.1-.9.4c-.3.3-.5.7-.6,1.1-.1.5-.2,1-.2,1.6v4.9h-1.4v-9.4h1.1l.2,1.6h0c.2-.5.4-1,.8-1.3.3-.3.7-.5,1.1-.5Z"/>
        <path class="st8" d="M309.5,93.5c.9,0,1.5.3,1.9.8.4.6.6,1.4.6,2.4v6.3h-1.1l-.2-1.3h0c-.5,1-1.2,1.5-2.1,1.5s-.9-.1-1.2-.4c-.3-.3-.5-.6-.7-1-.1-.4-.2-.9-.2-1.4,0-.9.3-1.6.8-2.2.5-.5,1.3-.8,2.3-.8h1.1v-.7c0-.7,0-1.2-.3-1.6-.2-.3-.5-.5-1-.5s-1.1.2-1.8.6l-.5-1.1c.7-.5,1.5-.7,2.4-.7ZM310.5,98.4h-.8c-1.3.1-1.9.8-1.9,2s0,1,.3,1.3.5.4.8.4.9-.2,1.2-.7c.3-.5.4-1.1.4-2v-.9Z"/>
        <path class="st8" d="M319.2,100.5c0,.9-.2,1.5-.7,2-.5.5-1.1.7-2,.7s-.8,0-1.2-.1c-.4,0-.7-.2-.9-.4v-1.5c.3.2.6.4.9.5.4.1.7.2,1.1.2s.7-.1,1-.4c.2-.2.3-.6.3-1s-.1-.7-.3-.9c-.2-.3-.6-.5-1.1-.8-.6-.4-1.1-.7-1.4-1.2-.4-.4-.5-1-.5-1.7s.2-1.3.7-1.8c.5-.4,1.1-.7,1.9-.7s1.5.2,2.1.6l-.5,1.1c-.2-.2-.5-.3-.8-.4s-.5-.1-.8-.1-.7.1-.9.3c-.2.2-.3.5-.3.9s.1.7.3.9c.2.2.6.5,1.1.9.6.4,1,.7,1.4,1.1.4.4.5,1,.5,1.7Z"/>
        <path class="st8" d="M322.5,90.2c.5,0,.8.3.8,1s-.3,1-.8,1-.5,0-.6-.3c-.1-.2-.2-.4-.2-.7,0-.7.3-1,.8-1ZM323.2,93.7v9.4h-1.4v-9.4h1.4Z"/>
        <path class="st8" d="M327.7,103.1h-1.4v-13.2h1.4v13.2Z"/>
        <path class="st8" d="M333.5,93.5c.6,0,1.2.2,1.6.5.4.4.7.9.9,1.5.2.6.3,1.3.3,2.1v1h-4.4c0,2.3.7,3.4,2.1,3.4s.7,0,1-.1c.3,0,.7-.3,1-.5v1.3c-.7.4-1.4.6-2.2.6s-1.4-.2-1.9-.6c-.5-.4-.8-1-1.1-1.7-.2-.7-.3-1.5-.3-2.4,0-1.6.3-2.8.8-3.6.5-.8,1.3-1.3,2.2-1.3ZM333.5,94.7c-.5,0-.8.2-1.1.7-.3.5-.4,1.2-.5,2.1h3.1c0-.5,0-1-.2-1.4-.1-.4-.3-.8-.5-1-.2-.3-.5-.4-.9-.4Z"/>
        <path class="st8" d="M339.7,90.2c.5,0,.8.3.8,1s-.3,1-.8,1-.5,0-.6-.3c-.1-.2-.2-.4-.2-.7,0-.7.3-1,.8-1ZM340.4,93.7v9.4h-1.4v-9.4h1.4Z"/>
        <path class="st8" d="M346.8,93.5c.3,0,.5,0,.8.1l-.2,1.5c-.2,0-.4-.1-.7-.1s-.6.1-.9.4c-.3.3-.5.7-.6,1.1-.1.5-.2,1-.2,1.6v4.9h-1.4v-9.4h1.1l.2,1.6h0c.2-.5.4-1,.8-1.3.3-.3.7-.5,1.1-.5Z"/>
        <path class="st8" d="M355.4,98.4c0,1-.1,1.8-.3,2.5-.2.7-.6,1.3-1,1.7-.5.4-1.1.6-1.8.6s-1.3-.2-1.7-.6c-.5-.4-.8-1-1-1.7-.2-.7-.3-1.6-.3-2.6,0-1.5.3-2.7.8-3.6s1.3-1.3,2.4-1.3,1.8.4,2.3,1.2c.6.8.8,2,.8,3.6ZM350.6,98.4c0,1.2.1,2.1.4,2.7.3.6.7.9,1.3.9,1.1,0,1.7-1.2,1.7-3.6s-.6-3.6-1.7-3.6-1,.3-1.3.9c-.3.6-.4,1.5-.4,2.7Z"/>
      </g>
    </g>
    <g id="triangulo">
      <polygon class="st19" points="72.5 60.6 96.5 60.6 75.4 24 63.4 44.8 72.5 60.6"/>
      <polygon class="st16" points="96.5 60.6 54.3 60.6 75.4 24 63.4 3.2 18.3 81.4 108.5 81.4 96.5 60.6"/>
      <polygon class="st8" points="72.5 60.6 63.4 44.8 54.3 60.6 72.5 60.6"/>
      <polygon class="st9" points="65.6 25.4 56.6 25.4 30.3 71 39.3 71 65.6 25.4"/>
    </g>
    <g id="maskmoeda">
      <g class="st20">
        <g id="moeda">
          <circle class="st0" cx="40.6" cy="45" r="22.8"/>
          <circle class="st12" cx="40.6" cy="45" r="18.6"/>
          <g id="rosto" class="st15">
            <g class="st13">
              <g>
                <path class="st4" d="M51.4,33.1c1,.5,1.9,1.3,2.4,2.3.6,1,.8,2.1.8,3.3-1.1-.3-1.9-1.3-2.4-2.3s-.6-2.1-.8-3.3Z"/>
                <g>
                  <path class="st2" d="M36.6,40.1c-1.1-.5-2-1.3-2.7-2.2s-1-2.2-1-3.3c1.2.3,2.1,1.2,2.6,2.2.6,1,.8,2.2,1.1,3.4Z"/>
                  <path class="st2" d="M40.3,44.6c-.8.4-1.8.6-2.7.6-.9,0-1.8-.4-2.6-1,.7-.6,1.8-.7,2.7-.5.9.2,1.8.6,2.6,1Z"/>
                  <path class="st2" d="M37.7,42.8c-.9.2-1.9.1-2.8-.2-.9-.3-1.6-1-2.2-1.7.9-.4,1.9-.2,2.7.3s1.5,1.1,2.2,1.7Z"/>
                  <path class="st2" d="M37.2,41.8c-.9-.1-1.8-.6-2.5-1.2s-1.2-1.5-1.4-2.4c.9,0,1.8.5,2.5,1.2.6.7,1,1.5,1.5,2.4Z"/>
                  <path class="st2" d="M38.1,45.3c-.8-.4-1.5-1.1-2-1.9-.5-.8-.7-1.8-.6-2.7.9.3,1.6,1.1,2,1.9.4.9.5,1.8.6,2.7Z"/>
                </g>
                <g>
                  <path class="st1" d="M32,55.5c0,.4.2.7.5.9.3.2.6.4.9.6.6.4,1.2.9,1.6,1.5.4.6.6,1.2,1.2,1.6.3.3.8.4,1.2.5.4.1.8.2,1.2.4.3.1.7.2,1,.3.3,0,.6.1.9.2,1.1,0,2.4-.4,3.4,0-1.4-.7-2.5-1.9-3.7-2.9-1.4-1.2-3-2.3-4.7-3.1-.6-.3-3.3-1.5-3.4,0Z"/>
                  <path class="st14" d="M50.5,55.3c1.1.8,2.4,1.4,3.5,2.2-.9,1.3-2.9,1.4-3.9,2.6-.3.4-.5.8-.8,1.1-.3.2-.6.3-1,.4-.9.2-1.7.5-2.6.5-1.5,0-3-.6-4.4-1.1-.4-.2-.9-.4-1.3-.6-.9-.4-1.8-.8-2.5-1.5-.4-.4-.7-1-1.3-1.3-.5-.3-1.1-.3-1.6-.7-.3-.2-.5-.6-.7-.9-.2-.3-.5-.7-.8-.8-.4-.2-.8,0-1,.3,0-.3.2-.7.5-.8.3-.1.7-.1,1-.1.8,0,1.5,0,2.3,0,.7,0,1.5,0,2.1-.3.7-.3,1.3-.9,1.3-1.6.2.7.7,1,1.4,1.2,2.1.8,4.5.3,6.5-.8,2-1.1,3-2.8,4.5-4.5.6-.7,0-2.1.5-2.9.1.2,1.7.5,1.9.6-.8,1.2-1.2,2.8-1.7,4.2-.6,1.7-1.4,3.2-2,4.9Z"/>
                </g>
                <path class="st7" d="M39.4,52.6c-1.8-3.4-2.7-7.1-2.6-10.9-.6-.6-1-1.4-.7-2.2.2-.4.6-.7.8-1.2.1-.3,0-.7,0-1.1,0-1.1.9-1.9,1.7-2.5s1.8-1.2,2.3-2.2c.5,1.1,1.7,1.7,2.8,2.1,1.1.4,2.3.7,3.1,1.6.3.4.6.9,1,1.1.5.3,1.2.3,1.8.5.9.3,1.6,1,2,1.8.4.9.5,1.8.6,2.8.1,1,.2,2.1.3,3.1,0,.5,0,1,0,1.5-.2,1.2-.9,2.2-1.7,3.2-1.3,1.5-3,2.8-4.9,3.5-1.5.5-2.2.6-3.7.4-2.2-.3-2.4-.9-2.8-1.6Z"/>
                <path class="st14" d="M57.7,46.8c-.1,1.8-.4,3.7-1.7,4.9-.4.3-.8.6-1.1,1-.4.5-.4,1.2-.8,1.7-.5.7-1.5,1.1-2.3.8-.5-.1-.8-.5-1.1-.9.2-.6,1.4-3.6,1.8-4.7.2-.6.5-1.6.8-2.3.2-.5,0-.8-.3-1.3-.1-.2-.5,0-.7-.2,0-1.4-.4-3.4-.7-4.7-.2-.7-.5-1.5-1.1-1.9-.5-.4-1.3-.5-1.9-.7-1-.3-1.9-.9-2.7-1.5-1.2-.8-2.4-1.7-3.7-2.5-.5-.4-1.1-.8-1.5-1.3-.3.4-.6.8-1,1.2-.7.5-1.4.9-2,1.6-.9,1.2-.6,3.2-1.7,4.2-.5-.3-.7-.9-.7-1.4s0-1.1,0-1.6c0-1.5-1.2-3.1-.6-4.4,1.6-3.7,6.4-2.8,7-2.9.7-.2,1.9.2,2.6.3.6.1,1.2.3,1.7.5,1.2.3,2.5.6,3.7,1,1.8.7,3.6,1.7,4.9,3.1,1.4,1.6,2.3,3.6,2.7,5.7.4,2.1.4,4.3.2,6.4Z"/>
                <g>
                  <g>
                    <path class="st14" d="M42.9,50.5c-.9-.3-2-.2-2.9-.3-.3,0-.7-.1-1-.4h0c0-.2.1-.4.2-.6.4-.5.9-.4,1.3-.2,0,0,.2,0,.4-.1.5,0,1,.4,1.1.8,0,0,0,0,0,0-.3-.2-.6-.5-1-.4,0,0-.2.1-.4.2-.3,0-.4-.1-.5-.2-.4-.1-.5,0-.7.5,0,0,0-.2,0-.2.4.6,1.2.5,1.7.3.6-.1,1.6,0,1.9.6h0Z"/>
                    <path class="st14" d="M39.3,50.6c.4.2.7.4,1.1.6.8,0,1.4-.5,2.2-.1-.6.5-1.5.4-2.3.3-.5,0-1.1-.2-1.1-.8,0,0,0,0,0,0h0Z"/>
                  </g>
                  <path class="st14" d="M39.4,52.3c.3-.4.8-.4,1.2-.3.7,0,1.5,0,1.9.7,0,0,0,0,0,0-.7,0-1.2-.5-1.8-.6-.4.1-.7.3-1.2.2,0,0,0,0,0,0h0Z"/>
                  <path class="st14" d="M41.6,40.2c2-1.1,5-.4,6.2,1.6-1.7-1.5-3.9-2.1-6.2-1.6h0Z"/>
                  <path class="st14" d="M39.9,42.3c-.3-.3-.8-.5-1.2-.5-.5,0-.9.2-1.2.6.7.5,1.7.5,2.4,0Z"/>
                  <path class="st14" d="M46.9,42.3c-.5-.4-1.1-.7-1.7-.8-.6-.1-1.6,0-2,.5.5.5,1.3.8,1.9.8.7,0,1.3-.1,1.8-.5Z"/>
                  <path class="st14" d="M42,46.5c.6-.7,1.7,0,1.2.9-.5.7-1.3.3-1.9.5-.6.1-1.4.4-1.9-.1-.5-.5-.2-1.4-.1-1.9.1-1.3.6-2.6.4-3.8-.2-1.4-1.5-1.9-2.7-1.4.5-.5,1.3-.6,1.9-.3,1.4.6,1.4,2.4,1.1,3.7,0,1-1.8,4.2.3,3.8.3,0,.6-.2.9-.3.7-.2,1.4.2,1.7-.3.4-.6-.4-1.1-.9-.7,0,0,0,0,0,0h0Z"/>
                </g>
                <g>
                  <g>
                    <path class="st5" d="M36.2,33.2c.9-1.2,2.4-1.7,3.8-2.2-.7-.2-1.5-.3-2.2-.3-.8,0-1.5.2-2.1.7-.7.6-1,1.7-1,2.7,0,.9.4,1.7.7,2.5,0-1.2,0-2.4.8-3.4Z"/>
                    <path class="st2" d="M36.2,33.2c.9-1.2,2.4-1.7,3.8-2.2-.7-.2-1.5-.3-2.2-.3-.8,0-1.5.2-2.1.7-.7.6-1,1.7-1,2.7,0,.9.4,1.7.7,2.5,0-1.2,0-2.4.8-3.4Z"/>
                  </g>
                  <path class="st2" d="M34.9,32.4c-.2-.9.1-1.9.8-2.6.7-.7,1.6-1.1,2.5-1.3.9-.2,1.9-.2,2.8-.2,2.9,0,5.5.4,7.9,2,.9.6,1.6,1.3,2.5,1.7.7.3,2.1.4,2.8.7.7.3,1.5.9,1.5,1.7,0,0-1.8.2-3.8-.4-2.1-.6-6.8-2.2-8.9-2.4-2.2-.2-4.6-.4-6.3.3l-1.8.7v-.2Z"/>
                </g>
                <g>
                  <path class="st4" d="M58.8,45.1c0,.9-.2,1.9-.7,2.7-.5.8-1.2,1.5-2,1.9-.2-.9.1-1.9.7-2.7s1.3-1.3,2-1.9Z"/>
                  <path class="st2" d="M53.1,43.2c.9.3,1.7.9,2.2,1.6.6.7.9,1.7,1,2.6-.9-.1-1.7-.8-2.2-1.6-.5-.8-.8-1.7-1-2.6Z"/>
                  <path class="st4" d="M58.5,41.7c.2,1.1.2,2.3-.3,3.3-.4,1.1-1.1,2-2,2.7-.4-1.1-.2-2.3.3-3.3.5-1,1.3-1.9,2-2.7Z"/>
                  <path class="st4" d="M56.5,33.8c.5,1,.8,2.2.6,3.3-.1,1.1-.6,2.2-1.3,3.1-.7-.9-.8-2.1-.6-3.3.2-1.1.7-2.1,1.2-3.1Z"/>
                  <path class="st4" d="M56,32.9c.1.8,0,1.7-.3,2.5-.3.8-.9,1.5-1.7,1.9-.3-.8,0-1.7.3-2.5.4-.8,1-1.4,1.6-2Z"/>
                  <path class="st4" d="M54.3,35c1,.9,1.6,2.1,1.7,3.3.2,1.2,0,2.5-.8,3.7-1.2-.8-1.7-2-1.7-3.3,0-1.3.3-2.5.7-3.7Z"/>
                  <path class="st4" d="M56.7,36.8c.8,1.4,1.2,3.1,1.1,4.7-.1,1.6-.7,3.2-1.7,4.5-1.1-1.3-1.3-3.1-1-4.7.3-1.6.9-3.1,1.6-4.6Z"/>
                  <path class="st4" d="M56.3,52.1c-.8-1.1-1.3-2.4-1.4-3.7-.1-1.3.2-2.7.8-3.9,1,.9,1.4,2.3,1.4,3.7,0,1.4-.4,2.6-.8,3.9Z"/>
                </g>
              </g>
            </g>
          </g>
          <g class="st17">
            <line class="st3" x1="47.6" y1=".1" x2="13.1" y2="59.8"/>
            <line class="st3" x1="49.3" y1="1.8" x2="14.8" y2="61.5"/>
            <line class="st3" x1="51" y1="3.5" x2="16.5" y2="63.2"/>
            <line class="st3" x1="52.7" y1="5.2" x2="18.2" y2="64.9"/>
            <line class="st3" x1="54.4" y1="6.9" x2="19.9" y2="66.6"/>
            <path class="st6" d="M28.1,52.5c2.5,4.3,7.2,7.1,12.5,7.1,8.1,0,14.6-6.5,14.6-14.6s-6.4-14.5-14.4-14.6"/>
            <g class="st10">
              <path class="st14" d="M32.9,37.3c.1,0,.3,0,.6,0,.3,0,.6,0,.9,0,.3,0,.7,0,1,0,.3,0,.6,0,.8,0,.6,0,1.2,0,1.6.2.4.1.8.4,1.2.7.3.3.5.6.7,1.1.2.4.3.9.3,1.3,0,.5,0,1-.2,1.4s-.3.7-.5.9c-.2.2-.4.4-.6.6-.3.2-.6.4-.9.6-.3.2-.7.3-1.1.5,0,0,0,0,0,0,0,0,0,0,0,.1.1.3.3.7.5,1.1.2.4.4.8.6,1.2.2.4.4.8.6,1.2.2.4.4.7.6.9.3.4.5.7.7.9.2.2.4.3.6.4.1,0,.3,0,.5.1.2,0,.4,0,.7,0,0,0,0,0,0,.2,0,.1,0,.2,0,.3,0,0,0,.2,0,.2-.6,0-1.1,0-1.5,0-.4,0-.7,0-1-.1-.2,0-.4-.1-.6-.2-.2-.1-.4-.2-.5-.4-.1-.2-.3-.4-.5-.7-.1-.2-.3-.4-.4-.8-.2-.3-.4-.7-.6-1.1-.2-.4-.4-.8-.6-1.2-.2-.4-.4-.8-.5-1.1,0-.2-.2-.4-.3-.4s-.2-.2-.3-.2c0,0-.1,0-.4,0-.2,0-.4,0-.6,0-.2,0-.3,0-.3,0s0,0-.1,0c0,0,0,0,0,0l-.7,4.2c0,.2,0,.3,0,.5s0,.3,0,.3c0,0,.2.2.4.3.2,0,.7.2,1.3.2,0,0,0,0,0,.2,0,.1,0,.2,0,.3,0,0,0,.2-.1.2,0,0-.2,0-.4,0-.2,0-.5,0-.8,0s-.6,0-.9,0c-.3,0-.5,0-.7,0s-.4,0-.7,0c-.3,0-.6,0-.9,0s-.6,0-.9,0c-.2,0-.4,0-.4,0,0,0,0,0,0-.2s0-.2,0-.3c0-.1,0-.2,0-.2.5,0,.9-.1,1.1-.2.3,0,.5-.2.6-.3.1,0,.2-.1.3-.3,0-.1.1-.3.1-.4l1.6-10.1c0-.3,0-.5,0-.6,0-.1,0-.3,0-.3,0,0-.2-.2-.5-.3s-.7-.2-1.3-.2c0,0,0-.2,0-.4,0-.2,0-.3.1-.3.1,0,.3,0,.7,0,.3,0,.7,0,1,0,.4,0,.6,0,.8,0ZM34.1,38.6c0,.2-.1.5-.2,1,0,.4-.1.9-.2,1.4,0,.5-.1,1-.2,1.4,0,.5-.1.9-.2,1.2s0,.5,0,.5c0,.1,0,.1.1.1.2,0,.4,0,.6,0s.4,0,.6,0c.2,0,.4,0,.5,0,.2,0,.3,0,.4,0,.5-.1.9-.3,1.3-.6.4-.3.7-.7.9-1.2.2-.5.3-1,.3-1.6s0-.9-.2-1.2c-.1-.3-.3-.6-.6-.8-.2-.2-.4-.3-.7-.4-.3-.1-.7-.2-1.1-.2s-.3,0-.5,0c-.2,0-.4,0-.5.1,0,0,0,0-.1.1,0,0,0,.1-.1.2Z"/>
              <path class="st14" d="M47,38.2c.6,0,1.1,0,1.4.2.4.1.6.2.8.3,0,0,.2,0,.2,0,0,0,.2,0,.4-.2,0,0,.1,0,.2,0s.1.1.1.2c0,.2,0,.5-.1.7,0,.2,0,.4-.1.7,0,.2,0,.4-.1.7,0,.2,0,.5-.1.7,0,0,0,0-.1,0,0,0-.1,0-.2,0,0,0-.1,0-.2,0s0,0,0,0c0,0,0,0,0,0,0-.5,0-.9-.2-1.2,0-.2-.1-.4-.2-.6-.1-.2-.3-.3-.5-.4s-.4-.2-.7-.3-.6-.1-.9-.1-.8.1-1.2.3c-.3.2-.6.5-.8.8-.2.3-.3.7-.3,1.1s0,.8.3,1.1c.2.3.5.6.9.9.2.1.4.3.7.5.3.2.6.4.9.6.3.2.5.4.7.5.3.3.6.5.9.8.3.3.5.6.6,1,.1.3.2.7.2,1.2,0,.8-.2,1.4-.6,2-.4.6-.9,1-1.6,1.3-.7.3-1.4.5-2.2.5-.3,0-.6,0-1-.1-.3,0-.7-.2-1-.3s-.6-.3-.9-.4c0,0-.1,0-.2,0,0,0-.2,0-.2.1,0,0-.1,0-.2,0,0,0-.1-.1-.2-.1l.4-3c0,0,.2,0,.2,0,0,0,.2,0,.2,0s.1,0,.2,0c0,.8.1,1.3.2,1.5,0,.3.2.4.2.5.3.3.6.6,1,.8s.8.3,1.4.3,1-.1,1.4-.3.7-.5.9-.9.3-.8.3-1.2c0-.4,0-.8-.3-1.2s-.5-.6-.8-.9c-.3-.3-.7-.5-1-.7-.3-.2-.8-.5-1.3-.9-.4-.3-.7-.5-.9-.8-.3-.3-.5-.6-.6-.9-.1-.3-.2-.7-.2-1.1,0-.6.2-1.2.5-1.8.3-.5.8-.9,1.4-1.3s1.3-.5,2.1-.5ZM47.9,36.9c0,0,0,.4-.1.8s-.2,1.1-.3,1.9c-.1.8-.3,1.6-.4,2.5-.2.9-.3,1.9-.5,2.9-.2,1-.3,1.9-.5,2.9-.2.9-.3,1.8-.4,2.6-.1.8-.2,1.4-.3,1.9,0,.5-.2.8-.2.8,0,0,0,0-.1.1,0,0-.1,0-.2,0,0,0-.2,0-.3,0,0,0-.2,0-.2-.1,0-.1,0-.5.2-1.1,0-.6.2-1.3.4-2.3.1-.9.3-1.9.5-3,.2-1.1.4-2.2.5-3.2.2-1.1.4-2.1.5-3.1.2-.9.3-1.7.4-2.4s.2-1.1.2-1.3c0,0,0,0,0,0,0,0,0,0,.1,0,0,0,.2,0,.3,0,.1,0,.2,0,.2.1Z"/>
            </g>
          </g>
        </g>
      </g>
    </g>
  </g>
</svg>